<?xml version="1.0" encoding="UTF-8" standalone="no"?>
<!-- Generator: Adobe Illustrator 19.1.0, SVG Export Plug-In . SVG Version: 6.00 Build 0)  -->

<svg
   xmlns:dc="http://purl.org/dc/elements/1.1/"
   xmlns:cc="http://creativecommons.org/ns#"
   xmlns:rdf="http://www.w3.org/1999/02/22-rdf-syntax-ns#"
   xmlns:svg="http://www.w3.org/2000/svg"
   xmlns="http://www.w3.org/2000/svg"
   xmlns:sodipodi="http://sodipodi.sourceforge.net/DTD/sodipodi-0.dtd"
   xmlns:inkscape="http://www.inkscape.org/namespaces/inkscape"
   version="1.1"
   id="Capa_1"
   x="0px"
   y="0px"
   viewBox="0 0 482.9 482.9"
   style="enable-background:new 0 0 482.9 482.9;"
   xml:space="preserve"
   inkscape:version="0.91 r13725"
   sodipodi:docname="avatar-gris.svg"><metadata
     id="metadata45"><rdf:RDF><cc:Work
         rdf:about=""><dc:format>image/svg+xml</dc:format><dc:type
           rdf:resource="http://purl.org/dc/dcmitype/StillImage" /><dc:title></dc:title></cc:Work></rdf:RDF></metadata><defs
     id="defs43" /><sodipodi:namedview
     pagecolor="#ffffff"
     bordercolor="#666666"
     borderopacity="1"
     objecttolerance="10"
     gridtolerance="10"
     guidetolerance="10"
     inkscape:pageopacity="0"
     inkscape:pageshadow="2"
     inkscape:window-width="1855"
     inkscape:window-height="1056"
     id="namedview41"
     showgrid="false"
     inkscape:zoom="0.48871403"
     inkscape:cx="303.85868"
     inkscape:cy="241.45"
     inkscape:window-x="65"
     inkscape:window-y="24"
     inkscape:window-maximized="1"
     inkscape:current-layer="Capa_1" /><g
     id="g3"><g
       id="g5"><path
         d="M239.7,260.2c0.5,0,1,0,1.6,0c0.2,0,0.4,0,0.6,0c0.3,0,0.7,0,1,0c29.3-0.5,53-10.8,70.5-30.5    c38.5-43.4,32.1-117.8,31.4-124.9c-2.5-53.3-27.7-78.8-48.5-90.7C280.8,5.2,262.7,0.4,242.5,0h-0.7c-0.1,0-0.3,0-0.4,0h-0.6    c-11.1,0-32.9,1.8-53.8,13.7c-21,11.9-46.6,37.4-49.1,91.1c-0.7,7.1-7.1,81.5,31.4,124.9C186.7,249.4,210.4,259.7,239.7,260.2z     M164.6,107.3c0-0.3,0.1-0.6,0.1-0.8c3.3-71.7,54.2-79.4,76-79.4h0.4c0.2,0,0.5,0,0.8,0c27,0.6,72.9,11.6,76,79.4    c0,0.3,0,0.6,0.1,0.8c0.1,0.7,7.1,68.7-24.7,104.5c-12.6,14.2-29.4,21.2-51.5,21.4c-0.2,0-0.3,0-0.5,0l0,0c-0.2,0-0.3,0-0.5,0    c-22-0.2-38.9-7.2-51.4-21.4C157.7,176.2,164.5,107.9,164.6,107.3z"
         id="path7" /><path
         d="M446.8,383.6c0-0.1,0-0.2,0-0.3c0-0.8-0.1-1.6-0.1-2.5c-0.6-19.8-1.9-66.1-45.3-80.9c-0.3-0.1-0.7-0.2-1-0.3    c-45.1-11.5-82.6-37.5-83-37.8c-6.1-4.3-14.5-2.8-18.8,3.3c-4.3,6.1-2.8,14.5,3.3,18.8c1.7,1.2,41.5,28.9,91.3,41.7    c23.3,8.3,25.9,33.2,26.6,56c0,0.9,0,1.7,0.1,2.5c0.1,9-0.5,22.9-2.1,30.9c-16.2,9.2-79.7,41-176.3,41    c-96.2,0-160.1-31.9-176.4-41.1c-1.6-8-2.3-21.9-2.1-30.9c0-0.8,0.1-1.6,0.1-2.5c0.7-22.8,3.3-47.7,26.6-56    c49.8-12.8,89.6-40.6,91.3-41.7c6.1-4.3,7.6-12.7,3.3-18.8c-4.3-6.1-12.7-7.6-18.8-3.3c-0.4,0.3-37.7,26.3-83,37.8    c-0.4,0.1-0.7,0.2-1,0.3c-43.4,14.9-44.7,61.2-45.3,80.9c0,0.9,0,1.7-0.1,2.5c0,0.1,0,0.2,0,0.3c-0.1,5.2-0.2,31.9,5.1,45.3    c1,2.6,2.8,4.8,5.2,6.3c3,2,74.9,47.8,195.2,47.8s192.2-45.9,195.2-47.8c2.3-1.5,4.2-3.7,5.2-6.3    C447,415.5,446.9,388.8,446.8,383.6z"
         id="path9" /></g></g><g
     id="g11" /><g
     id="g13" /><g
     id="g15" /><g
     id="g17" /><g
     id="g19" /><g
     id="g21" /><g
     id="g23" /><g
     id="g25" /><g
     id="g27" /><g
     id="g29" /><g
     id="g31" /><g
     id="g33" /><g
     id="g35" /><g
     id="g37" /><g
     id="g39" /><path
     style="fill:#f9f9f9"
     d="m 212.85299,255.48223 c -48.03043,-13.44062 -73.91818,-59.59207 -73.971,-131.87205 -0.0329,-44.981512 7.21205,-69.189258 27.27781,-91.144396 17.28499,-18.912529 39.23874,-28.8975015 68.15073,-30.9962191 19.85584,-1.4413327 44.51758,4.0340099 61.22501,13.5930341 22.40972,12.82154 38.89177,37.188733 45.1563,66.759405 3.52472,16.637881 4.04748,62.082196 0.91749,79.757846 -8.14279,45.98383 -30.83815,78.67593 -63.32798,91.22235 -14.98342,5.78606 -49.30499,7.19191 -65.42836,2.68003 z M 275.0653,226.12392 C 306.19563,210.79849 321.26865,171.89776 318.58619,113.8044 317.31894,86.359983 314.29874,73.273252 305.94094,59.011738 284.58374,22.568434 221.48367,15.029514 188.35128,44.96264 c -18.84947,17.029358 -25.54047,40.858224 -24.08894,85.78867 0.8302,25.69787 1.85568,33.35676 6.30139,47.06229 12.7903,39.43081 36.28395,57.01846 74.27175,55.60078 13.94185,-0.52031 18.91291,-1.71917 30.22982,-7.29046 z"
     id="path3373"
     inkscape:connector-curvature="0" /><path
     style="fill:#f9f9f9"
     d="m 185.58911,478.40706 c -54.32252,-6.52474 -132.067016,-33.14527 -142.2681,-48.7141 -4.890222,-7.46342 -7.573731,-39.75654 -5.131886,-61.7567 4.711821,-42.45184 16.747175,-57.92125 54.947196,-70.62531 24.9769,-8.30648 40.12104,-15.10849 60.39442,-27.12624 17.39833,-10.31345 23.44993,-11.52889 28.67195,-5.75862 7.85682,8.68169 3.55419,15.87962 -16.53079,27.65464 -20.41654,11.96939 -39.08639,20.40049 -62.59918,28.2691 -23.103978,7.7318 -28.375995,11.36789 -34.407515,23.7307 -4.113702,8.43186 -4.829435,13.46334 -5.455577,38.35171 -0.543068,21.58636 -0.04976,29.53369 2.001535,32.2459 3.622266,4.7893 35.586467,18.41088 60.732297,25.88114 38.37515,11.40039 67.98424,15.29962 115.91577,15.26501 65.14278,-0.047 109.73931,-9.11672 163.01605,-33.15289 l 13.64447,-6.15579 1.47037,-11.76839 c 1.7493,-14.00108 -0.0434,-43.59523 -3.33218,-55.00783 -3.974,-13.79038 -14.42082,-22.0176 -37.70422,-29.69336 -22.54234,-7.43144 -58.57992,-24.72983 -72.12807,-34.62217 -6.79847,-4.96399 -8.69629,-7.65464 -8.69629,-12.32927 0,-6.97091 4.6552,-12.41044 10.62098,-12.41044 2.30456,0 9.55507,3.25905 16.11228,7.24235 17.10487,10.39065 42.89936,22.10643 65.34513,29.67955 30.19926,10.18911 43.00744,22.0254 50.70016,46.85304 4.77629,15.41512 5.0911,73.68513 0.44836,82.98925 -6.39533,12.8163 -66.21784,36.98415 -113.55721,45.87624 -47.36715,8.89731 -95.98324,10.63481 -142.20995,5.08248 z"
     id="path3375"
     inkscape:connector-curvature="0" /></svg>