<?xml version="1.0" encoding="UTF-8" standalone="no"?>
<svg
   xmlns:dc="http://purl.org/dc/elements/1.1/"
   xmlns:cc="http://creativecommons.org/ns#"
   xmlns:rdf="http://www.w3.org/1999/02/22-rdf-syntax-ns#"
   xmlns:svg="http://www.w3.org/2000/svg"
   xmlns="http://www.w3.org/2000/svg"
   xmlns:sodipodi="http://sodipodi.sourceforge.net/DTD/sodipodi-0.dtd"
   xmlns:inkscape="http://www.inkscape.org/namespaces/inkscape"
   version="1.1"
   viewBox="0 0 129 129"
   enable-background="new 0 0 129 129"
   id="svg2"
   inkscape:version="0.91 r13725"
   sodipodi:docname="chart-gris.svg">
  <metadata
     id="metadata24">
    <rdf:RDF>
      <cc:Work
         rdf:about="">
        <dc:format>image/svg+xml</dc:format>
        <dc:type
           rdf:resource="http://purl.org/dc/dcmitype/StillImage" />
        <dc:title></dc:title>
      </cc:Work>
    </rdf:RDF>
  </metadata>
  <defs
     id="defs22" />
  <sodipodi:namedview
     pagecolor="#ffffff"
     bordercolor="#666666"
     borderopacity="1"
     objecttolerance="10"
     gridtolerance="10"
     guidetolerance="10"
     inkscape:pageopacity="0"
     inkscape:pageshadow="2"
     inkscape:window-width="1855"
     inkscape:window-height="1056"
     id="namedview20"
     showgrid="false"
     inkscape:zoom="1.8294574"
     inkscape:cx="81.17161"
     inkscape:cy="64.5"
     inkscape:window-x="65"
     inkscape:window-y="24"
     inkscape:window-maximized="1"
     inkscape:current-layer="svg2" />
  <g
     id="g4">
    <g
       id="g6">
      <path
         d="M118.4,114.4H14.6V10.6c0-2.3-1.8-4.1-4.1-4.1s-4.1,1.8-4.1,4.1v107.9c0,2.3,1.8,4.1,4.1,4.1h107.9c2.3,0,4.1-1.8,4.1-4.1    S120.7,114.4,118.4,114.4z"
         id="path8" />
      <path
         d="m54.3,98.6v-59c0-2.3-1.8-4.1-4.1-4.1-2.3,0-4.1,1.8-4.1,4.1v59c0,2.3 1.8,4.1 4.1,4.1 2.3,1.42109e-14 4.1-1.8 4.1-4.1z"
         id="path10" />
      <path
         d="m34.5,98.6v-59c0-2.3-1.8-4.1-4.1-4.1s-4.1,1.8-4.1,4.1v59c0,2.3 1.8,4.1 4.1,4.1s4.1-1.8 4.1-4.1z"
         id="path12" />
      <path
         d="m93.9,98.6v-59c0-2.3-1.8-4.1-4.1-4.1s-4.1,1.8-4.1,4.1v59c0,2.3 1.8,4.1 4.1,4.1s4.1-1.8 4.1-4.1z"
         id="path14" />
      <path
         d="m113.7,98.6v-29.5c0-2.3-1.8-4.1-4.1-4.1-2.3,0-4.1,1.8-4.1,4.1v29.5c0,2.3 1.8,4.1 4.1,4.1 2.3,1.42109e-14 4.1-1.8 4.1-4.1z"
         id="path16" />
      <path
         d="m74.1,98.6v-29.5c0-2.3-1.8-4.1-4.1-4.1s-4.1,1.8-4.1,4.1v29.5c0,2.3 1.8,4.1 4.1,4.1s4.1-1.8 4.1-4.1z"
         id="path18" />
    </g>
  </g>
  <path
     style="fill:#ffffff"
     d="M 8.4176348,121.69587 C 6.5985901,120.47677 6.559322,119.26147 6.559322,64.183125 l 0,-54.7217999 1.3416796,-1.3416795 C 9.5260778,6.4945694 11.641302,6.3938444 13.118644,7.8711864 c 1.078115,1.0781154 1.09322,1.8220339 1.09322,53.8411016 l 0,52.747882 52.175554,0 c 37.613532,0 52.553802,0.17235 53.530852,0.61752 0.74541,0.33963 1.65423,1.33919 2.01959,2.22125 0.57541,1.38917 0.51761,1.8002 -0.43198,3.0721 l -1.09626,1.46837 -55.695278,0.12976 c -30.6324,0.0714 -55.965919,-0.0516 -56.2967072,-0.2733 z"
     id="path3352"
     inkscape:connector-curvature="0" />
  <path
     style="fill:#ffffff"
     d="m 27.808417,101.16964 -1.188502,-1.265098 0,-30.889617 0,-30.889616 1.265103,-1.188502 c 1.657412,-1.557058 3.388063,-1.504519 5.04576,0.153178 l 1.34168,1.341679 0,30.561301 c 0,30.090372 -0.01746,30.583491 -1.132894,32.001535 -1.437328,1.82727 -3.708945,1.9019 -5.331147,0.17514 z"
     id="path3354"
     inkscape:connector-curvature="0" />
  <path
     style="fill:#ffffff"
     d="m 47.639561,101.09306 -1.34168,-1.341673 0,-30.659862 0,-30.659861 1.34168,-1.341679 c 1.684038,-1.684039 3.585524,-1.712465 5.122361,-0.07658 l 1.188502,1.265102 0,30.889616 0,30.889614 -1.265103,1.18851 c -1.657412,1.55705 -3.388063,1.50451 -5.04576,-0.15319 z"
     id="path3356"
     inkscape:connector-curvature="0" />
  <path
     style="fill:#ffffff"
     d="M 67.539581,101.39047 66.249153,100.34619 66.089171,84.170732 65.92919,67.995271 67.294198,66.630262 c 1.646478,-1.646478 3.756841,-1.755917 5.240971,-0.271787 1.044633,1.044632 1.093221,1.822033 1.093221,17.491525 0,15.669492 -0.04859,16.44689 -1.093221,17.49153 -1.377804,1.3778 -3.329861,1.39692 -4.995588,0.0489 z"
     id="path3358"
     inkscape:connector-curvature="0" />
  <path
     style="fill:#ffffff"
     d="m 87.293644,101.34153 c -1.067648,-1.06765 -1.09322,-1.822037 -1.09322,-32.250005 0,-30.427966 0.02557,-31.182352 1.09322,-32.25 1.378025,-1.378024 3.330136,-1.396896 4.995588,-0.04829 l 1.290429,1.044925 0,31.253369 0,31.253375 -1.290429,1.04492 c -1.665452,1.3486 -3.617563,1.32973 -4.995588,-0.0483 z"
     id="path3360"
     inkscape:connector-curvature="0" />
  <path
     style="fill:#ffffff"
     d="m 107.07468,101.32023 c -1.17916,-1.09855 -1.19629,-1.348691 -1.19629,-17.47023 0,-16.121539 0.0171,-16.371676 1.19629,-17.470232 1.59912,-1.489805 3.4812,-1.406212 5.11457,0.227166 l 1.34168,1.341679 0,15.901387 0,15.901387 -1.34168,1.341683 c -1.63337,1.63337 -3.51545,1.71697 -5.11457,0.22716 z"
     id="path3362"
     inkscape:connector-curvature="0" />
</svg>
