<?xml version="1.0" encoding="UTF-8" standalone="no"?>
<!-- Generator: Adobe Illustrator 19.0.0, SVG Export Plug-In . SVG Version: 6.00 Build 0)  -->

<svg
   xmlns:dc="http://purl.org/dc/elements/1.1/"
   xmlns:cc="http://creativecommons.org/ns#"
   xmlns:rdf="http://www.w3.org/1999/02/22-rdf-syntax-ns#"
   xmlns:svg="http://www.w3.org/2000/svg"
   xmlns="http://www.w3.org/2000/svg"
   xmlns:sodipodi="http://sodipodi.sourceforge.net/DTD/sodipodi-0.dtd"
   xmlns:inkscape="http://www.inkscape.org/namespaces/inkscape"
   version="1.1"
   id="Layer_1"
   x="0px"
   y="0px"
   viewBox="0 0 700 700"
   xml:space="preserve"
   inkscape:version="0.91 r13725"
   sodipodi:docname="light-bulb-red.svg"
   width="700"
   height="700"><metadata
     id="metadata59"><rdf:RDF><cc:Work
         rdf:about=""><dc:format>image/svg+xml</dc:format><dc:type
           rdf:resource="http://purl.org/dc/dcmitype/StillImage" /><dc:title></dc:title></cc:Work></rdf:RDF></metadata><defs
     id="defs57" /><sodipodi:namedview
     pagecolor="#ffffff"
     bordercolor="#666666"
     borderopacity="1"
     objecttolerance="10"
     gridtolerance="10"
     guidetolerance="10"
     inkscape:pageopacity="0"
     inkscape:pageshadow="2"
     inkscape:window-width="1855"
     inkscape:window-height="1056"
     id="namedview55"
     showgrid="false"
     inkscape:zoom="0.4609375"
     inkscape:cx="24.949151"
     inkscape:cy="256"
     inkscape:window-x="65"
     inkscape:window-y="24"
     inkscape:window-maximized="1"
     inkscape:current-layer="Layer_1" /><g
     id="g25"
     transform="translate(0,188)" /><g
     id="g27"
     transform="translate(0,188)" /><g
     id="g29"
     transform="translate(0,188)" /><g
     id="g31"
     transform="translate(0,188)" /><g
     id="g33"
     transform="translate(0,188)" /><g
     id="g35"
     transform="translate(0,188)" /><g
     id="g37"
     transform="translate(0,188)" /><g
     id="g39"
     transform="translate(0,188)" /><g
     id="g41"
     transform="translate(0,188)" /><g
     id="g43"
     transform="translate(0,188)" /><g
     id="g45"
     transform="translate(0,188)" /><g
     id="g47"
     transform="translate(0,188)" /><g
     id="g49"
     transform="translate(0,188)" /><g
     id="g51"
     transform="translate(0,188)" /><g
     id="g53"
     transform="translate(0,188)" /><ellipse
     style="fill:#ff0000"
     id="path3387"
     cx="352.88135"
     cy="351.05087"
     rx="352.54236"
     ry="349.28815" /><g
     id="g3"
     transform="translate(94.81356,118.84746)"
     style="fill:#f9f9f9"><g
       id="g5"
       style="fill:#f9f9f9"><g
         id="g7"
         style="fill:#f9f9f9"><path
           d="m 281.6,332.8 c 4.719,0 8.533,-3.823 8.533,-8.533 l 0,-119.467 25.6,0 c 23.526,0 42.667,-19.14 42.667,-42.667 0,-23.526 -19.14,-42.667 -42.667,-42.667 -23.526,0 -42.667,19.14 -42.667,42.667 l 0,25.6 -34.133,0 0,-25.6 c 0,-23.526 -19.14,-42.667 -42.667,-42.667 -23.526,0 -42.667,19.14 -42.667,42.667 0,23.526 19.14,42.667 42.667,42.667 l 25.6,0 0,119.467 c 0,4.71 3.823,8.533 8.533,8.533 4.71,0 8.533,-3.823 8.533,-8.533 l 0,-119.467 34.133,0 0,119.467 c 0.002,4.71 3.816,8.533 8.535,8.533 z m 8.533,-170.667 c 0,-14.114 11.486,-25.6 25.6,-25.6 14.114,0 25.6,11.486 25.6,25.6 0,14.114 -11.486,25.6 -25.6,25.6 l -25.6,0 0,-25.6 z m -68.266,25.6 -25.6,0 c -14.114,0 -25.6,-11.486 -25.6,-25.6 0,-14.114 11.486,-25.6 25.6,-25.6 14.114,0 25.6,11.486 25.6,25.6 l 0,25.6 z"
           id="path9"
           inkscape:connector-curvature="0"
           style="fill:#f9f9f9" /><path
           d="m 60.928,18.15 32.666,27.418 c 1.604,1.348 3.55,1.997 5.487,1.997 2.432,0 4.855,-1.033 6.536,-3.046 3.029,-3.61 2.56,-8.994 -1.05,-12.023 L 71.902,5.077 c -3.61,-3.021 -8.986,-2.551 -12.023,1.05 -3.03,3.618 -2.561,8.994 1.049,12.023 z"
           id="path11"
           inkscape:connector-curvature="0"
           style="fill:#f9f9f9" /><path
           d="M 66.449,92.612 26.368,78.029 c -4.429,-1.604 -9.318,0.674 -10.94,5.103 -1.604,4.429 0.674,9.327 5.103,10.94 l 40.081,14.583 c 0.964,0.35 1.946,0.521 2.918,0.521 3.482,0 6.758,-2.159 8.021,-5.623 1.614,-4.43 -0.673,-9.328 -5.102,-10.941 z"
           id="path13"
           inkscape:connector-curvature="0"
           style="fill:#f9f9f9" /><path
           d="m 412.894,47.565 c 1.928,0 3.874,-0.657 5.47,-1.997 l 32.683,-27.435 c 3.61,-3.029 4.087,-8.405 1.05,-12.023 -3.004,-3.593 -8.388,-4.079 -12.015,-1.05 l -32.683,27.435 c -3.61,3.029 -4.079,8.405 -1.05,12.023 1.681,2.006 4.104,3.047 6.545,3.047 z"
           id="path15"
           inkscape:connector-curvature="0"
           style="fill:#f9f9f9" /><path
           d="m 51.183,162.15 -42.65,0 c -4.71,0 -8.533,3.823 -8.533,8.533 0,4.71 3.823,8.533 8.533,8.533 l 42.65,0 c 4.71,0 8.533,-3.823 8.533,-8.533 0,-4.71 -3.823,-8.533 -8.533,-8.533 z"
           id="path17"
           inkscape:connector-curvature="0"
           style="fill:#f9f9f9" /><path
           d="m 496.555,83.106 c -1.604,-4.42 -6.511,-6.716 -10.931,-5.094 l -40.09,14.592 c -4.437,1.613 -6.716,6.511 -5.103,10.94 1.263,3.465 4.531,5.615 8.021,5.615 0.964,0 1.954,-0.162 2.91,-0.521 L 491.46,94.046 c 4.429,-1.613 6.716,-6.511 5.095,-10.94 z"
           id="path19"
           inkscape:connector-curvature="0"
           style="fill:#f9f9f9" /><path
           d="M 256,0 C 161.894,0 85.333,76.561 85.333,170.667 c 0,72.021 28.245,125.747 88.909,169.079 0.29,0.205 0.717,0.461 1.033,0.631 0.444,0.239 9.626,5.367 11.93,19.755 -9.634,3.678 -16.538,12.954 -16.538,23.868 0,6.554 2.475,12.536 6.536,17.067 -4.062,4.531 -6.536,10.513 -6.536,17.067 0,6.554 2.475,12.535 6.536,17.067 -4.062,4.531 -6.536,10.513 -6.536,17.067 0,14.114 11.486,25.6 25.6,25.6 4.71,0 8.533,-3.823 8.533,-8.533 0,-4.71 -3.823,-8.533 -8.533,-8.533 -4.702,0 -8.533,-3.831 -8.533,-8.533 0,-4.702 3.831,-8.533 8.533,-8.533 l 85.333,0 c 4.719,0 8.533,-3.823 8.533,-8.533 0,-4.71 -3.814,-8.533 -8.533,-8.533 l -85.333,0 c -4.702,0 -8.533,-3.831 -8.533,-8.533 0,-4.702 3.831,-8.533 8.533,-8.533 l 85.333,0 c 4.719,0 8.533,-3.823 8.533,-8.533 0,-4.71 -3.814,-8.533 -8.533,-8.533 l -85.333,0 c -4.702,0 -8.533,-3.831 -8.533,-8.533 0,-4.702 3.831,-8.533 8.533,-8.533 l 85.333,0 c 4.719,0 8.533,-3.823 8.533,-8.533 0,-4.71 -3.814,-8.533 -8.533,-8.533 l -77.38,0 c -3.021,-21.487 -16.947,-30.797 -20.437,-32.811 -56.286,-40.337 -81.382,-88.132 -81.382,-154.923 0,-84.693 68.907,-153.6 153.6,-153.6 84.693,0 153.6,68.907 153.6,153.6 0,66.79 -25.097,114.586 -81.382,154.923 -3.925,2.261 -21.018,13.739 -21.018,41.344 0,4.71 3.814,8.533 8.533,8.533 4.71,0 8.533,3.831 8.533,8.533 0,4.702 -3.823,8.533 -8.533,8.533 -4.719,0 -8.533,3.823 -8.533,8.533 0,4.71 3.814,8.533 8.533,8.533 4.71,0 8.533,3.831 8.533,8.533 0,4.702 -3.823,8.533 -8.533,8.533 -4.719,0 -8.533,3.823 -8.533,8.533 0,4.71 3.814,8.533 8.533,8.533 4.71,0 8.533,3.831 8.533,8.533 0,4.864 -3.669,8.533 -8.533,8.533 l -85.334,0 c -4.71,0 -8.533,3.823 -8.533,8.533 l 0,17.065 c 0,14.114 11.486,25.6 25.6,25.6 l 17.067,0 c 14.114,0 25.6,-11.486 25.6,-25.6 l 0,-8.533 25.6,0 c 14.362,0 25.6,-11.247 25.6,-25.6 0,-6.554 -2.475,-12.535 -6.537,-17.067 4.062,-4.531 6.537,-10.513 6.537,-17.067 0,-6.554 -2.475,-12.535 -6.537,-17.067 4.062,-4.531 6.537,-10.513 6.537,-17.067 0,-10.914 -6.904,-20.19 -16.546,-23.868 2.304,-14.387 11.477,-19.507 11.827,-19.703 0.401,-0.196 0.785,-0.427 1.143,-0.683 60.655,-43.332 88.909,-97.058 88.909,-169.079 C 426.667,76.561 350.106,0 256,0 Z m 17.067,486.4 c 0,4.702 -3.823,8.533 -8.533,8.533 l -17.067,0 c -4.702,0 -8.533,-3.831 -8.533,-8.533 l 0,-8.533 34.133,0 0,8.533 z"
           id="path21"
           inkscape:connector-curvature="0"
           style="fill:#f9f9f9" /><path
           d="m 503.467,162.133 -42.667,0 c -4.719,0 -8.533,3.823 -8.533,8.533 0,4.71 3.814,8.533 8.533,8.533 l 42.667,0 c 4.719,0 8.533,-3.823 8.533,-8.533 0,-4.71 -3.814,-8.533 -8.533,-8.533 z"
           id="path23"
           inkscape:connector-curvature="0"
           style="fill:#f9f9f9" /></g></g></g><path
     style="fill:#ff3300"
     d="M 311.75593,697.37209 C 188.26121,679.49603 91.29632,611.06261 37.339434,503.70141 -8.9402915,411.61591 -10.210106,299.41981 33.960362,205.13898 53.085126,164.31762 76.601629,132.03842 111.14613,99.192316 216.80835,-1.2749745 374.44096,-25.594253 507.1463,38.098113 c 68.03882,32.655456 132.0294,96.849437 163.51215,164.031847 22.36995,47.73624 32.80801,95.01221 32.81441,148.62286 0.002,18.04017 -1.08069,40.00627 -2.4063,48.81356 -19.65544,130.58931 -108.45411,237.1071 -233.84797,280.51057 -38.65752,13.38082 -59.04551,16.73179 -106.6491,17.52889 -23.2678,0.38959 -45.2339,0.28442 -48.81356,-0.23375 z m 59.45188,-68.67186 c 7.74196,-3.97874 13.39036,-12.75852 14.75538,-22.93552 l 1.21151,-9.03251 17.03604,0 c 15.75693,0 17.56802,-0.47527 24.12113,-6.32988 6.46716,-5.77783 7.04974,-7.3388 6.67986,-17.8983 -0.41305,-11.79169 -0.44709,-14.48939 -0.44709,-35.43283 0,-6.56272 -0.0566,-14.12882 -0.12561,-16.81356 -0.069,-2.68475 0.46119,-10.00997 1.1784,-16.27828 1.2526,-10.9475 0.99148,-11.70944 -6.62163,-19.32256 -7.27724,-7.27723 -7.72153,-8.41849 -5.43055,-13.94942 1.37232,-3.31305 9.67214,-11.52089 18.44407,-18.23965 54.1289,-41.45942 79.57267,-93.14124 79.5748,-161.63382 0.001,-33.26449 -4.49209,-52.09056 -19.29963,-80.86488 -18.95523,-36.83423 -57.25277,-69.75352 -96.15568,-82.65227 -62.05882,-20.57638 -126.55718,-6.23323 -173.16354,38.50812 -17.08592,16.40218 -25.88416,28.24187 -36.07169,48.54121 -12.47141,24.85013 -16.86513,44.77276 -16.86414,76.46782 0.002,68.25676 25.57404,120.27257 79.39406,161.49539 8.87133,6.79489 17.25251,15.06503 18.62482,18.37808 2.28587,5.51856 1.848,6.67089 -5.22066,13.73955 -6.50798,6.50797 -7.7158,9.21307 -7.7158,17.2808 0,5.26075 1.35474,11.41773 3.01054,13.68216 2.58033,3.5288 2.54863,4.8221 -0.22181,9.05036 -2.30467,3.51735 -2.84847,7.90289 -1.89479,15.28055 1.69526,13.11453 1.70162,16.94388 0.0464,27.96457 -2.49715,16.62707 8.81551,29.90675 24.38528,28.62531 7.62565,-0.62759 8.30143,-1.21302 8.30143,-7.19169 0,-5.27924 -1.35094,-7.10289 -7.15295,-9.65573 -5.75954,-2.53416 -7.02739,-4.22463 -6.50847,-8.67797 l 0.64451,-5.5307 47.16412,-0.58462 c 46.75462,-0.57955 47.19297,-0.62869 50.48988,-5.66042 2.6772,-4.08589 2.78964,-9.09893 0.28338,-12.63316 -0.17074,-0.24064 -22.27636,-0.97285 -49.12382,-1.62712 l -48.81356,-1.1896 0,-6.50847 0,-6.50848 48.35387,-1.08474 c 39.79066,-0.89264 48.71754,-1.66105 50.40746,-4.33899 3.02063,-4.78665 2.58502,-7.58467 -1.79838,-11.55158 -3.32329,-3.00755 -10.98409,-3.63523 -50.44068,-4.13286 l -46.52227,-0.58674 -0.73218,-5.17838 c -0.4027,-2.84811 0.57357,-6.00605 2.16949,-7.01764 1.59592,-1.01157 23.6131,-1.8542 48.92705,-1.87246 43.20989,-0.0312 46.16226,-0.28902 48.2634,-4.21504 2.98133,-5.57069 0.67987,-10.88549 -5.77673,-13.34029 -2.89801,-1.10182 -21.55806,-2.00678 -41.46684,-2.01104 l -36.19775,-0.009 -5.42373,-11.36488 c -4.2899,-8.98908 -9.87767,-14.99668 -26.72967,-28.73804 -45.3575,-36.98519 -66.13872,-76.1571 -70.06964,-132.07895 -5.07049,-72.13364 37.94678,-136.39456 106.51629,-159.1183 15.25268,-5.0547 20.88459,-5.76687 45.60506,-5.76687 24.72046,0 30.35238,0.71217 45.60505,5.76687 68.56952,22.72374 111.58678,86.98466 106.51629,159.1183 -3.68801,52.46616 -24.7652,94.90755 -62.4965,125.84396 -27.6442,22.66587 -31.82362,26.95667 -35.41387,36.35759 -1.94373,5.08961 -3.22113,13.0818 -2.83863,17.7604 0.59286,7.25154 1.75074,8.97084 7.8484,11.65379 5.75208,2.53088 7.02672,4.22675 6.50847,8.65941 -0.40966,3.50391 -2.22529,5.80157 -4.98345,6.30654 -6.45144,1.18112 -9.76271,4.60347 -9.76271,10.09018 0,5.48293 3.30487,8.90242 9.76271,10.10135 3.18523,0.59133 4.33898,2.52036 4.33898,7.25458 0,4.73422 -1.15375,6.66325 -4.33898,7.25458 -6.57336,1.22037 -9.76271,4.64328 -9.76271,10.47769 0,3.97085 1.87058,6.05037 7.59322,8.44145 5.66181,2.36564 7.59322,4.48579 7.59322,8.33515 0,2.83938 -1.54424,5.75509 -3.43168,6.47936 -1.88741,0.72526 -23.81917,1.31783 -48.73722,1.31783 -52.52165,0 -50.99567,-0.68109 -49.35309,22.02763 1.59827,22.09566 10.8922,29.97621 35.3525,29.97621 8.35254,0 17.533,-1.20595 20.40103,-2.67988 z M 332.87526,448.28028 c 0.87665,-1.28026 1.60885,-29.41926 1.62712,-62.53113 l 0.0332,-60.20339 16.27119,0 16.27118,0 0.0332,60.20339 c 0.0174,33.11187 0.75047,61.25087 1.62712,62.53113 3.2861,4.79906 9.26704,5.18556 13.57531,0.8773 4.06541,-4.06539 4.2898,-7.41055 4.2898,-63.9508 l 0,-59.66102 10.74067,0 c 17.73835,0 32.25852,-4.12856 40.75399,-11.58766 24.11546,-21.17368 19.56324,-57.58306 -9.05769,-72.44471 -8.54248,-4.43574 -28.5818,-4.45583 -37.01324,-0.0371 -16.99756,8.90799 -24.94916,24.27097 -24.94916,48.20319 l 0,16.34087 -16.27118,0 -16.27119,0 0,-16.34087 c 0,-32.384 -16.16594,-51.61413 -43.38983,-51.61413 -32.01694,0 -52.49607,31.42905 -39.34377,60.38039 8.22211,18.09877 25.64912,27.10001 52.4675,27.10001 l 10.74068,0 0,59.66102 c 0,56.54025 0.22439,59.88541 4.28978,63.9508 4.30826,4.30826 10.2892,3.92176 13.57531,-0.8773 z M 151.86441,296.90847 c 1.43186,-1.43186 2.60339,-4.65355 2.60339,-7.15932 0,-8.51451 -3.92901,-9.76271 -30.73045,-9.76271 -23.01413,0 -25.744487,0.41259 -27.769495,4.19636 -3.05117,5.70116 -2.834408,7.92207 1.163379,11.91986 4.330486,4.3305 50.528346,5.01064 54.733176,0.80581 z m 452.61791,-0.80581 c 1.87507,-1.87505 3.4092,-5.09674 3.4092,-7.15932 0,-7.62143 -4.52855,-8.9569 -30.37288,-8.9569 -26.42809,0 -30.37288,1.26796 -30.37288,9.76271 0,8.44857 3.97998,9.76271 29.56707,9.76271 19.25306,0 25.07505,-0.71476 27.76949,-3.4092 z m -437.7966,-73.97378 c 1.99987,-7.9681 -2.43357,-11.05772 -28.93334,-20.16337 -18.88477,-6.48905 -22.3536,-7.10544 -25.46323,-4.52469 -2.08518,1.73055 -3.32567,5.34817 -2.94799,8.59721 0.57216,4.92209 3.17746,6.5819 21.26223,13.54595 25.95925,9.9963 34.0686,10.56826 36.08233,2.5449 z m 402.54364,-2.05217 c 17.79268,-6.5358 21.57243,-8.73446 22.69334,-13.20057 0.8888,-3.54124 0.12605,-6.57742 -2.24872,-8.95228 -3.34521,-3.34522 -5.11744,-3.07005 -25.63482,3.98022 -26.68047,9.16807 -31.11342,12.24781 -29.11132,20.2248 1.99597,7.95266 8.0512,7.59038 34.30152,-2.05217 z M 198.76494,165.85602 c 1.99268,-0.76466 3.43167,-3.85074 3.43167,-7.35961 0,-4.91546 -3.4161,-8.91943 -18.31158,-21.46281 -18.42026,-15.51156 -24.51942,-18.0673 -29.31813,-12.28522 -4.84974,5.84359 -1.22777,11.56429 17.1028,27.0129 18.22557,15.36012 20.59106,16.59063 27.09524,14.09474 z m 331.11731,-14.1699 c 10.09154,-8.51772 18.66726,-17.3579 19.05716,-19.64484 0.91192,-5.34877 -3.32401,-10.42772 -8.69686,-10.42772 -4.56813,0 -40.66309,29.27331 -41.08264,33.31835 -0.81016,7.81084 2.3926,12.14189 9.02742,12.20775 1.84067,0.0182 11.60338,-6.93582 21.69492,-15.45354 z"
     id="path3359"
     inkscape:connector-curvature="0" /><path
     style="fill:#ff3300"
     d="m 280.07721,302.39118 c -24.71259,-12.17905 -11.66841,-50.48842 15.45831,-45.39941 13.7584,2.58109 20.99329,15.0404 20.99329,36.15285 l 0,12.87572 -14.64407,-0.0494 c -9.05299,-0.0305 -17.37906,-1.39728 -21.80753,-3.57976 z"
     id="path3361"
     inkscape:connector-curvature="0" /><path
     style="fill:#ff3300"
     d="m 385.96065,290.29153 c 0.01,-19.24026 4.51143,-28.12161 16.21039,-31.98262 20.02206,-6.60787 38.57397,12.273 30.66297,31.20669 -4.80243,11.49384 -14.55965,16.48684 -32.2374,16.49663 l -14.64407,0.008 0.008,-15.72881 z"
     id="path3363"
     inkscape:connector-curvature="0" /><path
     style="fill:#ff3300"
     d="m 336.57806,609.40518 c -1.48132,-1.48132 -2.69332,-4.93874 -2.69332,-7.68315 0,-4.76695 0.73291,-4.98983 16.40865,-4.98983 l 16.40864,0 -0.67983,7.05085 c -0.67644,7.01575 -0.74472,7.054 -13.71533,7.68315 -8.26936,0.40111 -14.02024,-0.35245 -15.72881,-2.06102 z"
     id="path3365"
     inkscape:connector-curvature="0" /></svg>