<?xml version="1.0" encoding="UTF-8" standalone="no"?>
<!-- Generator: Adobe Illustrator 19.0.0, SVG Export Plug-In . SVG Version: 6.00 Build 0)  -->

<svg
   xmlns:dc="http://purl.org/dc/elements/1.1/"
   xmlns:cc="http://creativecommons.org/ns#"
   xmlns:rdf="http://www.w3.org/1999/02/22-rdf-syntax-ns#"
   xmlns:svg="http://www.w3.org/2000/svg"
   xmlns="http://www.w3.org/2000/svg"
   xmlns:sodipodi="http://sodipodi.sourceforge.net/DTD/sodipodi-0.dtd"
   xmlns:inkscape="http://www.inkscape.org/namespaces/inkscape"
   version="1.1"
   id="Capa_1"
   x="0px"
   y="0px"
   viewBox="0 0 489.9 489.9"
   style="enable-background:new 0 0 489.9 489.9;"
   xml:space="preserve"
   inkscape:version="0.91 r13725"
   sodipodi:docname="euro-gris.svg"><metadata
     id="metadata41"><rdf:RDF><cc:Work
         rdf:about=""><dc:format>image/svg+xml</dc:format><dc:type
           rdf:resource="http://purl.org/dc/dcmitype/StillImage" /><dc:title></dc:title></cc:Work></rdf:RDF></metadata><defs
     id="defs39" /><sodipodi:namedview
     pagecolor="#ffffff"
     bordercolor="#666666"
     borderopacity="1"
     objecttolerance="10"
     gridtolerance="10"
     guidetolerance="10"
     inkscape:pageopacity="0"
     inkscape:pageshadow="2"
     inkscape:window-width="1855"
     inkscape:window-height="1056"
     id="namedview37"
     showgrid="false"
     inkscape:zoom="0.48173097"
     inkscape:cx="308.26334"
     inkscape:cy="244.95"
     inkscape:window-x="65"
     inkscape:window-y="24"
     inkscape:window-maximized="1"
     inkscape:current-layer="Capa_1" /><g
     id="g3"><path
       d="M423.787,14.6c-24.8-9.7-50.8-14.6-77.4-14.6c-94.8,0-176.2,62.9-210.2,152.1h-57.8c-18.8,0-34,15.2-34,34s15.2,34,34,34   h42c-0.8,8.2-0.8,41.6,0,49.7h-42c-18.8,0-34,15.2-34,34s15.2,34,34,34h57.9c34,89.1,115.4,152.1,210.2,152.1   c21.7,0,43.1-3.3,63.8-9.8c17.9-5.6,27.9-24.8,22.2-42.7c-5.6-17.9-24.8-27.9-42.7-22.2c-14,4.4-28.6,6.6-43.4,6.6   c-57.1,0-107.3-33.6-135.4-84h144.2c18.8,0,34-15.2,34-34s-15.2-34-34-34h-166.3c-1-8.1-1-41.6,0-49.7h166.4c18.8,0,34-15.2,34-34   s-15.2-34-34-34h-144.2c28.1-50.4,78.2-84,135.4-84c18.1,0,35.8,3.3,52.6,9.9c17.5,6.8,37.2-1.8,44.1-19.3   C449.987,41.1,441.387,21.4,423.787,14.6z"
       id="path5" /></g><g
     id="g7" /><g
     id="g9" /><g
     id="g11" /><g
     id="g13" /><g
     id="g15" /><g
     id="g17" /><g
     id="g19" /><g
     id="g21" /><g
     id="g23" /><g
     id="g25" /><g
     id="g27" /><g
     id="g29" /><g
     id="g31" /><g
     id="g33" /><g
     id="g35" /><path
     style="fill:#ffffff"
     d="M 309.99489,485.58074 C 240.54912,472.98005 179.9458,425.73161 147.03258,358.52972 l -10.35501,-21.14278 -34.77538,-0.65362 C 67.21508,336.08136 67.10692,336.06452 59.291239,330.09748 40.53303,315.77615 41.26482,290.61256 60.862401,276.071 c 5.089088,-3.77616 9.35357,-4.43177 32.694598,-5.0265 l 26.842151,-0.68393 0,-25.78313 0,-25.78312 -25.641109,0 c -23.232827,0 -26.298953,-0.44332 -32.645199,-4.72006 -3.852249,-2.59602 -9.211319,-7.96728 -11.909045,-11.93612 -9.464542,-13.92403 -3.071824,-36.52616 12.754243,-45.09397 5.153549,-2.78999 13.88322,-3.79731 40.20576,-4.63934 l 33.62292,-1.07555 11.16898,-21.99472 C 179.47653,67.261608 230.79147,24.627528 294.52356,7.5613424 311.69188,2.9640027 318.85573,2.2052923 345.6286,2.1489025 c 32.7917,-0.069068 54.38211,3.5768853 75.90166,12.8174395 30.815,13.23205 29.67,53.364398 -1.79144,62.790479 -7.94271,2.379696 -10.42119,2.075661 -27.92033,-3.424961 -17.19771,-5.40587 -22.023,-6.026256 -46.18989,-5.938622 -23.91981,0.08675 -28.87292,0.748989 -43.5928,5.828496 -32.96178,11.374388 -64.00162,35.097906 -82.86353,63.331976 l -9.20283,13.77557 77.17089,1.03792 c 85.40684,1.1487 85.26184,1.12581 95.1709,15.01857 3.69812,5.18487 4.83432,9.54735 4.83432,18.56173 0,12.72998 -3.49743,19.46764 -14.28995,27.52893 -5.52614,4.12766 -8.91959,4.31689 -95.36072,5.31789 l -89.63069,1.03792 0,24.91017 0,24.91017 89.63115,1.03793 c 86.4418,1.00099 89.83502,1.1902 95.36072,5.31788 10.79229,8.06178 14.28949,14.79919 14.28949,27.52893 0,9.01439 -1.1362,13.37687 -4.83432,18.56173 -9.91142,13.89608 -9.74509,13.86986 -95.34237,15.01857 l -77.34235,1.03793 9.08473,13.53892 c 14.44185,21.5226 39.7912,43.93515 62.20848,55.00149 25.38888,12.53326 43.69555,16.25123 73.01227,14.82832 12.55887,-0.60955 27.50498,-2.60336 33.21356,-4.43069 14.08962,-4.51009 24.33113,-2.54379 34.47276,6.61857 14.72866,13.30647 15.08297,33.97722 0.81303,47.43548 -15.49518,14.61384 -71.68682,21.82697 -112.43645,14.4331 z"
     id="path3369"
     inkscape:connector-curvature="0" /></svg>