<?xml version="1.0" encoding="UTF-8" standalone="no"?>
<!-- Generator: Adobe Illustrator 19.0.0, SVG Export Plug-In . SVG Version: 6.00 Build 0)  -->

<svg
   xmlns:dc="http://purl.org/dc/elements/1.1/"
   xmlns:cc="http://creativecommons.org/ns#"
   xmlns:rdf="http://www.w3.org/1999/02/22-rdf-syntax-ns#"
   xmlns:svg="http://www.w3.org/2000/svg"
   xmlns="http://www.w3.org/2000/svg"
   xmlns:sodipodi="http://sodipodi.sourceforge.net/DTD/sodipodi-0.dtd"
   xmlns:inkscape="http://www.inkscape.org/namespaces/inkscape"
   version="1.1"
   id="Layer_1"
   x="0px"
   y="0px"
   viewBox="0 0 700 700"
   xml:space="preserve"
   inkscape:version="0.91 r13725"
   sodipodi:docname="tap-blue.svg"
   width="700"
   height="700"><metadata
     id="metadata53"><rdf:RDF><cc:Work
         rdf:about=""><dc:format>image/svg+xml</dc:format><dc:type
           rdf:resource="http://purl.org/dc/dcmitype/StillImage" /><dc:title></dc:title></cc:Work></rdf:RDF></metadata><defs
     id="defs51" /><sodipodi:namedview
     pagecolor="#ffffff"
     bordercolor="#666666"
     borderopacity="1"
     objecttolerance="10"
     gridtolerance="10"
     guidetolerance="10"
     inkscape:pageopacity="0"
     inkscape:pageshadow="2"
     inkscape:window-width="1855"
     inkscape:window-height="1056"
     id="namedview49"
     showgrid="false"
     inkscape:snap-nodes="false"
     inkscape:snap-global="true"
     inkscape:zoom="0.47011952"
     inkscape:cx="-262.69915"
     inkscape:cy="251"
     inkscape:window-x="65"
     inkscape:window-y="24"
     inkscape:window-maximized="1"
     inkscape:current-layer="Layer_1" /><g
     id="g19"
     transform="translate(0,198)" /><g
     id="g21"
     transform="translate(0,198)" /><g
     id="g23"
     transform="translate(0,198)" /><g
     id="g25"
     transform="translate(0,198)" /><g
     id="g27"
     transform="translate(0,198)" /><g
     id="g29"
     transform="translate(0,198)" /><g
     id="g31"
     transform="translate(0,198)" /><g
     id="g33"
     transform="translate(0,198)" /><g
     id="g35"
     transform="translate(0,198)" /><g
     id="g37"
     transform="translate(0,198)" /><g
     id="g39"
     transform="translate(0,198)" /><g
     id="g41"
     transform="translate(0,198)" /><g
     id="g43"
     transform="translate(0,198)" /><g
     id="g45"
     transform="translate(0,198)" /><g
     id="g47"
     transform="translate(0,198)" /><path
     style="fill:#3366cc"
     d="M 311.6644,701.78014 C 259.95995,695.17964 208.8486,677.61034 168.48283,652.56194 85.135193,600.84194 30.179303,522.57999 8.159273,424.24723 3.7702527,404.64764 3.2409327,396.90227 3.3121627,353.32118 3.3813627,310.96827 4.0236527,301.49836 8.094143,282.81196 58.852073,49.797816 313.46824,-66.808894 519.58415,48.564576 c 41.3786,23.161677 84.7065,62.247424 112.7009,101.666564 63.5173,89.43949 81.5143,207.49094 47.4741,311.40671 -17.9133,54.68445 -44.8596,98.36568 -86.1225,139.60879 -55.7996,55.7728 -118.732,87.4475 -196.09694,98.6979 -20.41951,2.9694 -68.87942,4.0053 -85.87531,1.8356 z m -99.40945,-112.4988 c 18.6084,-9.273 26.31487,-27.1831 20.47433,-47.58313 -3.73235,-13.03643 -14.89092,-36.08204 -25.55253,-52.77322 -12.66449,-19.82676 -20.48928,-14.47732 -41.46838,28.35011 -12.81932,26.16979 -14.88801,38.52404 -8.76759,52.36028 2.34091,5.292 7.65792,12.21646 11.81558,15.38766 14.3516,10.9465 27.4951,12.2332 43.49859,4.2583 z m 46.35671,-152.8263 c 3.82334,-2.79129 4.20773,-6.64518 5.19257,-52.06057 1.39564,-64.35995 -4.2606,-58.51816 57.48687,-59.37275 l 46.74194,-0.6469 0,7.40809 c 0,13.97545 0.5096,14.09335 60.91471,14.09335 33.3139,0 55.8163,-0.84927 58.3438,-2.20195 3.0057,-1.60861 4.1144,-4.47452 4.1144,-10.63559 l 0,-8.43364 16.865,0 c 12.4957,0 17.731,-0.866 20.2076,-3.34262 5.0206,-5.02057 5.0206,-115.9213 0,-120.94189 -2.4766,-2.47662 -7.7119,-3.34261 -20.2076,-3.34261 l -16.865,0 0,-8.43364 c 0,-6.16107 -1.1087,-9.02698 -4.1144,-10.63559 -2.5275,-1.35269 -25.0299,-2.20196 -58.3438,-2.20196 -60.24199,0 -60.91471,0.1526 -60.91471,13.81795 l 0,7.13272 -66.47246,0.80333 c -61.40581,0.7421 -67.53801,1.15725 -80.45215,5.44666 -35.39195,11.75537 -65.5912,41.5097 -78.7785,77.61784 -4.58222,12.54657 -4.87657,16.85622 -5.64648,82.67197 l -0.81226,69.43539 4.88049,3.41843 c 4.17402,2.92359 12.75881,3.41842 59.30573,3.41842 43.60328,0 55.24626,-0.5994 58.55425,-3.01444 z M 438.22795,154.48275 c 2.3777,-1.50145 3.3785,-7.18386 3.9278,-22.30217 l 0.7371,-20.28737 30.486,0 c 24.8783,0 31.1008,-0.61484 33.8285,-3.34261 4.1365,-4.13646 4.2201,-7.40619 0.3256,-12.735997 -2.8593,-3.91306 -6.5584,-4.16269 -70.7267,-4.77286 -37.24031,-0.35411 -70.81284,-0.0729 -74.60564,0.62495 -5.14912,0.94739 -7.24911,2.67569 -8.28993,6.822647 -2.82933,11.27293 -0.0785,12.28637 35.09048,12.9275 l 32.20989,0.58718 0,19.7268 c 0,12.50691 0.9342,20.66102 2.5525,22.27934 3.0444,3.04436 10.0303,3.27261 14.4644,0.47259 z"
     id="path3423"
     inkscape:connector-curvature="0" /></svg>