<?xml version="1.0" encoding="UTF-8" standalone="no"?>
<!-- Generator: Adobe Illustrator 19.0.0, SVG Export Plug-In . SVG Version: 6.00 Build 0)  -->

<svg
   xmlns:dc="http://purl.org/dc/elements/1.1/"
   xmlns:cc="http://creativecommons.org/ns#"
   xmlns:rdf="http://www.w3.org/1999/02/22-rdf-syntax-ns#"
   xmlns:svg="http://www.w3.org/2000/svg"
   xmlns="http://www.w3.org/2000/svg"
   xmlns:sodipodi="http://sodipodi.sourceforge.net/DTD/sodipodi-0.dtd"
   xmlns:inkscape="http://www.inkscape.org/namespaces/inkscape"
   version="1.1"
   id="Layer_1"
   x="0px"
   y="0px"
   viewBox="0 0 700 700"
   xml:space="preserve"
   inkscape:version="0.91 r13725"
   sodipodi:docname="tap-green.svg"
   width="700"
   height="700"><metadata
     id="metadata53"><rdf:RDF><cc:Work
         rdf:about=""><dc:format>image/svg+xml</dc:format><dc:type
           rdf:resource="http://purl.org/dc/dcmitype/StillImage" /><dc:title></dc:title></cc:Work></rdf:RDF></metadata><defs
     id="defs51" /><sodipodi:namedview
     pagecolor="#ffffff"
     bordercolor="#666666"
     borderopacity="1"
     objecttolerance="10"
     gridtolerance="10"
     guidetolerance="10"
     inkscape:pageopacity="0"
     inkscape:pageshadow="2"
     inkscape:window-width="1855"
     inkscape:window-height="1056"
     id="namedview49"
     showgrid="false"
     inkscape:snap-nodes="false"
     inkscape:snap-global="true"
     inkscape:zoom="0.47011952"
     inkscape:cx="-554.11441"
     inkscape:cy="251"
     inkscape:window-x="65"
     inkscape:window-y="24"
     inkscape:window-maximized="1"
     inkscape:current-layer="Layer_1" /><g
     id="g19"
     transform="translate(0,198)" /><g
     id="g21"
     transform="translate(0,198)" /><g
     id="g23"
     transform="translate(0,198)" /><g
     id="g25"
     transform="translate(0,198)" /><g
     id="g27"
     transform="translate(0,198)" /><g
     id="g29"
     transform="translate(0,198)" /><g
     id="g31"
     transform="translate(0,198)" /><g
     id="g33"
     transform="translate(0,198)" /><g
     id="g35"
     transform="translate(0,198)" /><g
     id="g37"
     transform="translate(0,198)" /><g
     id="g39"
     transform="translate(0,198)" /><g
     id="g41"
     transform="translate(0,198)" /><g
     id="g43"
     transform="translate(0,198)" /><g
     id="g45"
     transform="translate(0,198)" /><g
     id="g47"
     transform="translate(0,198)" /><path
     style="fill:#04c8fc"
     d="M 311.6644,701.78014 C 259.95995,695.17964 208.8486,677.61034 168.48283,652.56194 85.135193,600.84194 30.179303,522.57999 8.159273,424.24723 3.7702527,404.64764 3.2409327,396.90227 3.3121627,353.32118 3.3813627,310.96827 4.0236527,301.49836 8.094143,282.81196 58.852073,49.797816 313.46824,-66.808894 519.58415,48.564576 c 41.3786,23.161677 84.7065,62.247424 112.7009,101.666564 63.5173,89.43949 81.5143,207.49094 47.4741,311.40671 -17.9133,54.68445 -44.8596,98.36568 -86.1225,139.60879 -55.7996,55.7728 -118.732,87.4475 -196.09694,98.6979 -20.41951,2.9694 -68.87942,4.0053 -85.87531,1.8356 z m -99.40945,-112.4988 c 18.6084,-9.273 26.31487,-27.1831 20.47433,-47.58313 -3.73235,-13.03643 -14.89092,-36.08204 -25.55253,-52.77322 -12.66449,-19.82676 -20.48928,-14.47732 -41.46838,28.35011 -12.81932,26.16979 -14.88801,38.52404 -8.76759,52.36028 2.34091,5.292 7.65792,12.21646 11.81558,15.38766 14.3516,10.9465 27.4951,12.2332 43.49859,4.2583 z m 46.35671,-152.8263 c 3.82334,-2.79129 4.20773,-6.64518 5.19257,-52.06057 1.39564,-64.35995 -4.2606,-58.51816 57.48687,-59.37275 l 46.74194,-0.6469 0,7.40809 c 0,13.97545 0.5096,14.09335 60.91471,14.09335 33.3139,0 55.8163,-0.84927 58.3438,-2.20195 3.0057,-1.60861 4.1144,-4.47452 4.1144,-10.63559 l 0,-8.43364 16.865,0 c 12.4957,0 17.731,-0.866 20.2076,-3.34262 5.0206,-5.02057 5.0206,-115.9213 0,-120.94189 -2.4766,-2.47662 -7.7119,-3.34261 -20.2076,-3.34261 l -16.865,0 0,-8.43364 c 0,-6.16107 -1.1087,-9.02698 -4.1144,-10.63559 -2.5275,-1.35269 -25.0299,-2.20196 -58.3438,-2.20196 -60.24199,0 -60.91471,0.1526 -60.91471,13.81795 l 0,7.13272 -66.47246,0.80333 c -61.40581,0.7421 -67.53801,1.15725 -80.45215,5.44666 -35.39195,11.75537 -65.5912,41.5097 -78.7785,77.61784 -4.58222,12.54657 -4.87657,16.85622 -5.64648,82.67197 l -0.81226,69.43539 4.88049,3.41843 c 4.17402,2.92359 12.75881,3.41842 59.30573,3.41842 43.60328,0 55.24626,-0.5994 58.55425,-3.01444 z M 438.22795,154.48275 c 2.3777,-1.50145 3.3785,-7.18386 3.9278,-22.30217 l 0.7371,-20.28737 30.486,0 c 24.8783,0 31.1008,-0.61484 33.8285,-3.34261 4.1365,-4.13646 4.2201,-7.40619 0.3256,-12.735997 -2.8593,-3.91306 -6.5584,-4.16269 -70.7267,-4.77286 -37.24031,-0.35411 -70.81284,-0.0729 -74.60564,0.62495 -5.14912,0.94739 -7.24911,2.67569 -8.28993,6.822647 -2.82933,11.27293 -0.0785,12.28637 35.09048,12.9275 l 32.20989,0.58718 0,19.7268 c 0,12.50691 0.9342,20.66102 2.5525,22.27934 3.0444,3.04436 10.0303,3.27261 14.4644,0.47259 z"
     id="path3423"
     inkscape:connector-curvature="0" /><path
     style="fill:#32cd32"
     d="M 314.17543,700.81828 C 260.41963,695.10676 201.6035,673.83595 157.44856,644.13814 92.825257,600.67369 46.544696,540.04176 20.75376,465.05498 7.4040597,426.24094 4.6796612,407.52106 4.6796612,354.60679 c 0,-54.63504 2.4612588,-72.48512 15.1545108,-109.9069 C 60.668572,124.31347 156.90366,38.27788 280.64927,11.527338 306.84182,5.8651948 365.39395,3.6321059 392.63009,7.2565597 538.18922,26.62687 656.35545,135.4277 687.34961,278.6178 c 20.90133,96.56208 1.1408,195.65277 -54.9322,275.46186 -14.39417,20.48732 -36.5838,44.93255 -57.34975,63.17936 -58.10699,51.05806 -125.00673,78.57534 -203.46003,83.68744 -32.98968,2.14965 -36.05828,2.1428 -57.4322,-0.12826 l 0,8e-5 z m -99.01468,-113.2365 c 15.43501,-9.35405 19.71405,-17.55858 18.78078,-36.00978 -0.61852,-12.22844 -2.38999,-17.56587 -12.72104,-38.32859 -12.901,-25.92758 -20.30585,-35.74002 -26.97084,-35.74002 -6.17586,0 -15.9837,13.1069 -28.25704,37.7618 -8.98846,18.05622 -11.02331,24.27783 -11.82687,36.16102 -0.9018,13.33597 -0.49937,15.05532 5.68135,24.27329 13.0911,19.52417 34.95415,24.2207 55.31366,11.88228 z M 259.8801,435.74354 c 2.48929,-2.34415 3.42692,-12.61047 4.54181,-49.72908 1.56741,-52.18434 2.64241,-56.31646 15.17173,-58.31689 3.81108,-0.60846 24.87681,-1.37746 46.81272,-1.70884 l 39.88347,-0.60255 0,5.86368 c 0,11.68728 5.82324,14.33184 32.43856,14.73161 43.39607,0.65186 87.69949,-0.81462 90.40254,-2.99238 1.4624,-1.17822 2.6589,-5.2516 2.6589,-9.052 l 0,-6.9098 16.52701,-1.44167 c 9.08986,-0.79291 17.94399,-2.31777 19.67585,-3.38859 4.7465,-2.93474 4.70665,-120.3911 -0.0419,-123.39185 -1.75488,-1.10897 -10.60901,-2.03097 -19.67585,-2.04888 l -16.48511,-0.0326 0,-8.43364 c 0,-6.28789 -1.09457,-9.01943 -4.30209,-10.73604 -2.86217,-1.53179 -22.85502,-2.0908 -59.73356,-1.67018 -52.01749,0.59329 -55.61724,0.88653 -58.4479,4.76124 -1.65905,2.27096 -3.01645,6.71052 -3.01645,9.86568 l 0,5.73667 -67.53602,0.94679 c -64.30892,0.90154 -68.14586,1.18219 -80.29872,5.8733 -25.66077,9.90526 -45.0276,25.03975 -60.82204,47.53022 -19.04605,27.12057 -19.35185,28.68843 -21.41972,109.82093 -1.60141,62.83119 -1.43037,71.54987 1.46055,74.44915 4.06317,4.07494 38.26608,5.93802 86.099,4.68993 24.24971,-0.63273 33.80005,-1.6416 36.10722,-3.81424 z M 440.79163,150.8522 c 1.14097,-3.00095 2.07447,-12.4304 2.07447,-20.95434 l 0,-15.49808 30.12647,-1.49116 c 16.56957,-0.82015 31.88483,-2.43221 34.0339,-3.58237 4.67111,-2.4999 5.0331,-8.09631 0.89041,-13.765882 -2.8668,-3.923423 -6.60021,-4.161078 -74.98093,-4.772992 -76.11571,-0.681133 -77.40908,-0.533552 -80.20905,9.152453 -2.689,9.302151 0.9059,10.557641 34.22298,11.952021 17.29989,0.72403 31.55033,1.44193 31.66762,1.59534 0.11721,0.15341 0.83073,8.97793 1.58543,19.61006 0.75468,10.63212 1.91171,20.20416 2.57118,21.27118 0.65945,1.06702 4.5164,1.94004 8.57103,1.94004 5.95614,0 7.77045,-1.04793 9.44649,-5.45627 z"
     id="path3348"
     inkscape:connector-curvature="0" /><path
     style="fill:#00cc00"
     d="M 291.57065,696.52452 C 247.31177,688.72646 194.52396,667.74556 158.5472,643.65339 87.343733,595.97133 37.005476,525.1092 14.076216,440.27881 4.3512399,404.29975 2.3982804,325.60797 10.196552,283.95318 17.451394,245.20114 37.793908,197.40756 63.396958,158.96184 110.38441,88.405152 181.9816,38.135897 267.86355,15.403374 292.80437,8.8016579 293.12904,8.7747458 349.27289,8.6550235 l 56.36864,-0.1202014 24.73014,6.6699179 c 134.06824,36.159282 228.14883,134.52539 257.53361,269.2647 4.14463,19.00457 4.74899,27.93976 4.71178,69.66107 -0.037,41.44486 -0.67093,50.68134 -4.72969,68.90703 -15.96277,71.68007 -44.78776,124.45714 -96.05102,175.86445 -60.07072,60.23953 -122.38915,90.5211 -205.33889,99.77762 -29.26098,3.2653 -69.32503,2.35574 -94.92681,-2.15509 z M 214.82063,588.00031 c 16.39143,-9.40008 20.04501,-16.31881 19.03584,-36.04777 -0.72462,-14.16578 -2.06854,-18.45605 -11.99363,-38.28813 -13.86334,-27.70138 -20.10822,-36.16102 -26.69395,-36.16102 -7.4434,0 -17.24309,12.58367 -29.61268,38.02531 -9.34935,19.22962 -10.97737,24.46948 -11.61128,37.37137 -0.68548,13.9513 -0.27844,15.63626 5.79188,23.97613 13.44829,18.47631 34.75891,22.77996 55.08382,11.12411 z M 239.0932,439.55674 c 10.18107,-0.77835 19.67211,-2.57628 21.09121,-3.99539 1.70215,-1.70214 3.45215,-18.95937 5.14238,-50.70999 2.31281,-43.44547 2.97892,-48.54653 6.84413,-52.41172 3.93881,-3.93881 7.88144,-4.37452 49.20042,-5.43717 l 44.9185,-1.15522 0,6.64767 c 0,4.88255 1.53073,7.6491 5.76493,10.41919 5.16531,3.37918 11.22866,3.73532 58.29152,3.42387 34.09988,-0.22569 54.09063,-1.1847 56.98504,-2.73375 2.97756,-1.59353 4.45851,-4.46744 4.45851,-8.6521 0,-6.95776 0.10529,-7.00243 23.3983,-9.92818 l 13.82627,-1.73666 1.40898,-10.6356 c 1.82703,-13.79098 1.82703,-90.43783 0,-104.22881 l -1.40898,-10.63559 -18.61229,-0.6146 -18.61228,-0.61459 0,-8.00024 c 0,-4.40013 -1.14865,-9.14888 -2.55255,-10.55278 -1.85382,-1.85381 -17.42954,-2.54396 -56.90042,-2.52118 -60.42621,0.0349 -64.53204,0.78255 -65.62786,11.951 -0.6344,6.46557 -0.86564,6.58845 -14.88983,7.91307 -7.83499,0.74003 -34.82532,1.35786 -59.9785,1.37296 -25.15318,0.0151 -51.47627,0.9606 -58.49576,2.10113 -17.19869,2.79446 -40.79926,14.79393 -55.47249,28.20443 -15.43857,14.10999 -31.94602,37.61488 -36.12218,51.43422 -3.58416,11.86039 -7.10771,71.61555 -7.23741,122.73774 -0.066,26.0052 0.4805,31.57882 3.32789,33.94195 6.04121,5.01376 61.68959,7.44098 101.25247,4.41634 z M 440.66416,152.19407 c 1.21107,-2.26291 2.20195,-11.29769 2.20195,-20.07729 l 0,-15.96289 9.04025,-1.10747 c 4.97214,-0.60911 18.57098,-1.69726 30.21966,-2.4181 23.90258,-1.47914 28.80788,-3.24588 28.80788,-10.37576 0,-10.466189 -2.06556,-10.775653 -76.48293,-11.458758 -43.4173,-0.398544 -71.58239,0.171318 -75.12996,1.520105 -6.34349,2.411784 -9.946,11.769573 -6.03619,15.679383 1.37121,1.3712 15.57853,3.29042 32.70824,4.41844 16.65623,1.09684 30.65471,2.3007 31.10775,2.67525 0.45301,0.37455 1.56345,8.79756 2.46765,18.7178 0.90417,9.92025 2.26512,19.04186 3.02431,20.27025 2.47497,4.00458 15.65577,2.63265 18.07139,-1.88096 z"
     id="path3349"
     inkscape:connector-curvature="0" /><path
     style="fill:#00cc00"
     d="M 312.47373,698.76876 C 265.35459,694.11567 198.6815,670.02109 159.12197,643.3499 94.349243,599.67985 45.419203,535.02955 21.192607,461.10652 9.238091,424.6295 7.3331843,409.53591 7.2888816,350.93983 7.2457055,293.83414 8.9419597,281.67995 22.317987,243.25162 40.756448,190.27928 67.192261,148.17806 107.06162,108.29037 155.27156,60.05826 208.96583,30.232019 277.37628,13.6835 c 14.60671,-3.533371 24.95737,-4.118519 73.07856,-4.1313111 60.50504,-0.016084 62.85119,0.2847238 102.40872,13.1301031 89.39797,29.029886 165.89133,95.078518 205.36521,177.323728 11.17054,23.27421 24.81549,63.22639 29.54214,86.49879 5.18854,25.54661 4.63678,113.41378 -0.86852,138.31051 -18.83153,85.16228 -63.48698,153.47467 -137.61332,210.51617 -52.43425,40.34906 -115.61626,61.66806 -190.40271,64.24609 -15.58266,0.53716 -36.46835,0.17314 -46.41263,-0.80882 z M 211.43379,590.01818 c 5.23811,-2.46222 12.40672,-7.76015 15.9302,-11.77317 5.94622,-6.77235 6.40635,-8.48172 6.40635,-23.79863 0,-15.8498 -0.49653,-17.50776 -12.55936,-41.93659 -20.15158,-40.80965 -27.41708,-43.77145 -44.32479,-18.06911 -22.25748,33.8348 -29.30479,67.0136 -17.565,82.69612 12.51191,16.71396 33.12141,21.80828 52.1126,12.88138 z m 45.19057,-152.63876 c 5.76135,-3.08336 6.42937,-6.87667 9.04157,-51.34213 1.20276,-20.47352 2.69925,-40.34274 3.32554,-44.15382 1.92309,-11.70236 5.94968,-12.78966 53.58608,-14.46974 l 43.07415,-1.51919 0,5.60951 c 0,14.57395 16.27227,17.60399 81.16436,15.11352 37.48694,-1.43872 40.43644,-1.84681 43.34347,-5.99718 1.7156,-2.44938 3.11929,-6.07879 3.11929,-8.06535 0,-3.87385 3.62916,-4.98707 23.70765,-7.27215 11.2515,-1.28049 12.08957,-1.77198 13.29449,-7.7966 1.69925,-8.49626 1.66228,-105.58663 -0.0434,-114.11532 l -1.32951,-6.64724 -17.57311,0 -17.57308,0 -1.40718,-9.38363 c -0.8177,-5.45284 -2.77385,-9.90807 -4.66972,-10.63559 -4.50677,-1.72941 -106.95678,-1.16864 -113.5248,0.62139 -3.54839,0.96707 -5.98881,3.70564 -7.33447,8.23055 -1.10917,3.72969 -3.50217,7.3686 -5.3178,8.08648 -1.81562,0.71787 -32.49582,2.03365 -68.17823,2.92395 -63.78885,1.59157 -65.10904,1.71462 -78.70339,7.33526 -19.70095,8.14545 -35.36303,19.68201 -49.52176,36.47732 -19.02787,22.57117 -24.52354,35.63076 -27.28028,64.82732 -3.23831,34.29689 -3.65291,126.67583 -0.58243,129.77478 1.31037,1.32254 8.968,3.23531 17.01695,4.2506 20.16899,2.54415 96.7395,1.15826 102.3656,-1.85274 z m 183.1316,-283.84607 c 1.26674,-1.52631 2.94923,-10.5221 3.73888,-19.99063 l 1.43572,-17.21552 13.00676,-1.22084 c 7.15371,-0.67146 20.54918,-1.8504 29.76768,-2.61986 11.89927,-0.99322 17.86912,-2.50722 20.58153,-5.21965 4.37077,-4.37076 3.39365,-11.494334 -1.92283,-14.018109 -1.93206,-0.917169 -35.3148,-2.009148 -74.18388,-2.426623 l -70.671,-0.759045 -5.51988,5.519866 c -3.03593,3.035928 -5.21322,7.112141 -4.83842,9.058241 0.89315,4.63784 8.23739,6.2858 38.44122,8.62579 13.75197,1.06542 25.56099,2.49451 26.24226,3.17578 0.68125,0.68126 2.13761,8.73324 3.23631,17.89329 1.09872,9.16005 2.42121,17.85114 2.93887,19.31354 1.24353,3.51299 14.80853,3.42416 17.74678,-0.11623 z"
     id="path3351"
     inkscape:connector-curvature="0" /><path
     style="fill:#00cc00"
     d="M 309.28306,698.65273 C 269.75874,694.35125 216.92803,676.64235 177.4017,654.44597 85.950023,603.09043 17.564031,500.20817 8.1211676,399.77448 4.8970543,365.483 6.6268335,301.52486 11.368317,279.71199 19.819555,240.8326 39.192226,196.38609 63.887451,159.2179 84.502721,128.19035 126.36382,86.09776 156.27857,66.315854 194.06189,41.330652 231.45544,24.813169 273.12204,14.703749 292.9026,9.9044594 298.35256,9.542602 350.89303,9.5400408 411.8942,9.5370669 417.12204,10.23474 457.1178,23.716102 c 87.19147,29.389607 164.98411,98.228438 202.80249,179.460238 11.49568,24.69204 23.72833,61.19631 28.13183,83.94993 4.74883,24.53808 4.66018,110.49703 -0.13826,134.00848 -5.10192,24.99862 -18.4528,63.5877 -29.85356,86.28799 -33.47387,66.65045 -95.04732,128.19534 -159.46375,159.38981 -55.77526,27.00985 -125.6747,38.76607 -189.31356,31.84018 l 7e-5,0 z M 212.77295,588.542 c 15.99847,-8.3577 21.01052,-16.55166 20.9469,-34.24512 -0.0574,-15.9797 -4.65801,-28.97074 -19.39415,-54.76494 -18.08383,-31.65402 -26.26072,-28.92935 -48.89504,16.29264 -15.23829,30.44517 -15.66984,51.08865 -1.37478,65.76281 13.98828,14.35922 30.13162,16.66376 48.71707,6.95461 z m 43.09097,-151.36216 c 6.30575,-2.39746 6.82256,-5.32246 9.92968,-56.20007 2.48061,-40.61861 3.7013,-46.59877 10.22443,-50.08986 2.28975,-1.22544 23.31613,-2.86802 46.72528,-3.65018 l 42.5621,-1.42213 0.70492,5.9694 c 0.41596,3.52234 3.16758,7.79957 6.71238,10.43398 5.74775,4.2716 8.18962,4.44619 56.48402,4.03851 27.76211,-0.23437 52.9683,-1.37346 56.01373,-2.53134 3.66001,-1.39154 6.01681,-4.28897 6.95196,-8.5467 1.50123,-6.83502 0.66007,-6.49394 25.48052,-10.3322 8.75324,-1.35361 10.79815,-2.53001 12.0189,-6.91435 1.85506,-6.66232 2.3035,-102.50385 0.52982,-113.23448 l -1.31845,-7.97669 -17.61522,0 -17.61522,0 -1.44219,-8.53621 c -0.84853,-5.02239 -3.05692,-9.40039 -5.36493,-10.63559 -4.27281,-2.28674 -98.7985,-2.50461 -109.4948,-0.25238 -4.49347,0.94615 -7.47654,3.5462 -10.08324,8.78858 -3.55529,7.15004 -4.27143,7.49764 -18.08051,8.77605 -7.90824,0.73212 -32.08688,1.45729 -53.73032,1.61148 -67.36786,0.47995 -83.34553,4.21509 -112.1391,26.21506 -13.93251,10.64527 -33.54376,36.03379 -39.07148,50.58156 -6.70028,17.63373 -9.35997,63.02434 -8.49492,144.97599 0.20048,18.99229 -0.18059,18.65098 23.56991,21.11146 19.78337,2.0495 89.56267,0.47392 96.54273,-2.17989 z M 439.76581,152.58602 c 1.06798,-2.04736 2.61112,-11.05535 3.42921,-20.01778 l 1.48745,-16.29531 12.06726,-1.19199 c 6.63697,-0.65559 19.24625,-1.81636 28.02061,-2.57948 20.78968,-1.80812 25.52543,-3.68595 25.52543,-10.12141 0,-10.429357 -2.1,-10.757806 -74.60569,-11.668608 -37.25051,-0.467934 -70.15029,-0.242883 -73.11062,0.500113 -2.96033,0.742998 -6.97803,3.786124 -8.92824,6.762506 -6.13378,9.361329 -1.15632,11.613429 32.12311,14.534419 19.0161,1.66908 29.68587,3.50172 30.79019,5.28853 0.92946,1.50388 2.29716,9.26806 3.03935,17.25372 0.7422,7.98566 1.93124,16.03551 2.64231,17.88856 1.83241,4.77518 14.98279,4.51001 17.51963,-0.35327 z"
     id="path3353"
     inkscape:connector-curvature="0" /></svg>