<?xml version="1.0" encoding="UTF-8" standalone="no"?>
<!-- Generator: Adobe Illustrator 19.0.0, SVG Export Plug-In . SVG Version: 6.00 Build 0)  -->

<svg
   xmlns:dc="http://purl.org/dc/elements/1.1/"
   xmlns:cc="http://creativecommons.org/ns#"
   xmlns:rdf="http://www.w3.org/1999/02/22-rdf-syntax-ns#"
   xmlns:svg="http://www.w3.org/2000/svg"
   xmlns="http://www.w3.org/2000/svg"
   xmlns:sodipodi="http://sodipodi.sourceforge.net/DTD/sodipodi-0.dtd"
   xmlns:inkscape="http://www.inkscape.org/namespaces/inkscape"
   version="1.1"
   id="Capa_1"
   x="0px"
   y="0px"
   viewBox="0 0 58.365 58.365"
   style="enable-background:new 0 0 58.365 58.365;"
   xml:space="preserve"
   inkscape:version="0.91 r13725"
   sodipodi:docname="home-gris.svg"><metadata
     id="metadata39"><rdf:RDF><cc:Work
         rdf:about=""><dc:format>image/svg+xml</dc:format><dc:type
           rdf:resource="http://purl.org/dc/dcmitype/StillImage" /><dc:title></dc:title></cc:Work></rdf:RDF></metadata><defs
     id="defs37" /><sodipodi:namedview
     pagecolor="#ffffff"
     bordercolor="#666666"
     borderopacity="1"
     objecttolerance="10"
     gridtolerance="10"
     guidetolerance="10"
     inkscape:pageopacity="0"
     inkscape:pageshadow="2"
     inkscape:window-width="1855"
     inkscape:window-height="1056"
     id="namedview35"
     showgrid="false"
     inkscape:zoom="4.0435191"
     inkscape:cx="36.725435"
     inkscape:cy="29.182501"
     inkscape:window-x="65"
     inkscape:window-y="24"
     inkscape:window-maximized="1"
     inkscape:current-layer="Capa_1" /><path
     d="M57.863,26.632L29.182,0L0.502,26.632c-0.404,0.376-0.428,1.009-0.052,1.414c0.374,0.404,1.009,0.427,1.413,0.052  l3.319-3.082v33.349h16h16h16V25.015l3.319,3.082c0.192,0.179,0.437,0.267,0.681,0.267c0.269,0,0.536-0.107,0.732-0.319  C58.291,27.641,58.267,27.008,57.863,26.632z M23.182,56.365v-16c0-3.309,2.691-6,6-6s6,2.691,6,6v16H23.182z M51.182,56.365h-14  v-16c0-4.411-3.589-8-8-8s-8,3.589-8,8v16h-14V23.158l22-20.429l22,20.429V56.365z"
     id="path3" /><g
     id="g5" /><g
     id="g7" /><g
     id="g9" /><g
     id="g11" /><g
     id="g13" /><g
     id="g15" /><g
     id="g17" /><g
     id="g19" /><g
     id="g21" /><g
     id="g23" /><g
     id="g25" /><g
     id="g27" /><g
     id="g29" /><g
     id="g31" /><g
     id="g33" /><path
     style="fill:#ffffff"
     d="m 5.1934959,41.646891 c 0,-9.113349 -0.074557,-16.569725 -0.1656822,-16.569725 -0.091125,0 -0.9149732,0.72338 -1.8307738,1.607511 -0.9158005,0.88413 -1.8292196,1.60751 -2.0298201,1.60751 -0.49969777,0 -1.00517491,-0.657635 -0.838776,-1.091265 C 0.48852691,26.783754 28.894356,0.34623306 29.182501,0.34623306 c 0.288145,0 28.693973,26.43752094 28.854057,26.85468894 0.166399,0.43363 -0.339079,1.091265 -0.838777,1.091265 -0.2006,0 -1.11402,-0.72338 -2.029819,-1.60751 -0.915801,-0.884131 -1.73965,-1.607511 -1.830774,-1.607511 -0.09113,0 -0.165682,7.456376 -0.165682,16.569725 l 0,16.569725 -23.989005,0 -23.9890051,0 0,-16.569725 z m 16.1254181,5.847936 0.07334,-8.990624 0.865583,-1.696196 c 2.998212,-5.875301 11.237419,-5.669777 14.060039,0.350724 l 0.654866,1.396793 0.07334,8.964964 0.07334,8.964963 7.036799,0 7.036801,0 -0.0025,-16.755207 -0.0025,-16.755207 L 40.185397,12.762983 29.182501,2.5509285 18.179604,12.762983 7.1767075,22.975037 l -0.00237,16.755207 -0.00237,16.755207 7.0368005,0 7.0368,0 0.07334,-8.990624 z m 13.998762,0.149315 -0.0761,-8.841308 -0.741928,-1.341132 c -0.904954,-1.63582 -2.196223,-2.614366 -3.975213,-3.012487 -2.708257,-0.606081 -5.310587,0.580198 -6.674795,3.042723 l -0.726221,1.310896 -0.0761,8.841308 -0.0761,8.841309 6.211275,0 6.211275,0 -0.0761,-8.841309 z"
     id="path3367"
     inkscape:connector-curvature="0" /></svg>