<?xml version="1.0" encoding="UTF-8" standalone="no"?>
<!-- Generator: Adobe Illustrator 19.0.0, SVG Export Plug-In . SVG Version: 6.00 Build 0)  -->

<svg
   xmlns:dc="http://purl.org/dc/elements/1.1/"
   xmlns:cc="http://creativecommons.org/ns#"
   xmlns:rdf="http://www.w3.org/1999/02/22-rdf-syntax-ns#"
   xmlns:svg="http://www.w3.org/2000/svg"
   xmlns="http://www.w3.org/2000/svg"
   xmlns:sodipodi="http://sodipodi.sourceforge.net/DTD/sodipodi-0.dtd"
   xmlns:inkscape="http://www.inkscape.org/namespaces/inkscape"
   version="1.1"
   id="Layer_1"
   x="0px"
   y="0px"
   viewBox="0 0 512 512"
   style="enable-background:new 0 0 512 512;"
   xml:space="preserve"
   inkscape:version="0.91 r13725"
   sodipodi:docname="light-bulb-gris.svg"><metadata
     id="metadata59"><rdf:RDF><cc:Work
         rdf:about=""><dc:format>image/svg+xml</dc:format><dc:type
           rdf:resource="http://purl.org/dc/dcmitype/StillImage" /><dc:title></dc:title></cc:Work></rdf:RDF></metadata><defs
     id="defs57" /><sodipodi:namedview
     pagecolor="#ffffff"
     bordercolor="#666666"
     borderopacity="1"
     objecttolerance="10"
     gridtolerance="10"
     guidetolerance="10"
     inkscape:pageopacity="0"
     inkscape:pageshadow="2"
     inkscape:window-width="1855"
     inkscape:window-height="1056"
     id="namedview55"
     showgrid="false"
     inkscape:zoom="0.4609375"
     inkscape:cx="322.16949"
     inkscape:cy="256"
     inkscape:window-x="65"
     inkscape:window-y="24"
     inkscape:window-maximized="1"
     inkscape:current-layer="Layer_1" /><g
     id="g3"><g
       id="g5"><g
         id="g7"><path
           d="M281.6,332.8c4.719,0,8.533-3.823,8.533-8.533V204.8h25.6c23.526,0,42.667-19.14,42.667-42.667     c0-23.526-19.14-42.667-42.667-42.667c-23.526,0-42.667,19.14-42.667,42.667v25.6h-34.133v-25.6     c0-23.526-19.14-42.667-42.667-42.667c-23.526,0-42.667,19.14-42.667,42.667c0,23.526,19.14,42.667,42.667,42.667h25.6v119.467     c0,4.71,3.823,8.533,8.533,8.533s8.533-3.823,8.533-8.533V204.8h34.133v119.467C273.067,328.977,276.881,332.8,281.6,332.8z      M290.133,162.133c0-14.114,11.486-25.6,25.6-25.6s25.6,11.486,25.6,25.6s-11.486,25.6-25.6,25.6h-25.6V162.133z      M221.867,187.733h-25.6c-14.114,0-25.6-11.486-25.6-25.6s11.486-25.6,25.6-25.6s25.6,11.486,25.6,25.6V187.733z"
           id="path9" /><path
           d="M60.928,18.15l32.666,27.418c1.604,1.348,3.55,1.997,5.487,1.997c2.432,0,4.855-1.033,6.536-3.046     c3.029-3.61,2.56-8.994-1.05-12.023L71.902,5.077c-3.61-3.021-8.986-2.551-12.023,1.05C56.849,9.745,57.318,15.121,60.928,18.15z     "
           id="path11" /><path
           d="M66.449,92.612L26.368,78.029c-4.429-1.604-9.318,0.674-10.94,5.103c-1.604,4.429,0.674,9.327,5.103,10.94l40.081,14.583     c0.964,0.35,1.946,0.521,2.918,0.521c3.482,0,6.758-2.159,8.021-5.623C73.165,99.123,70.878,94.225,66.449,92.612z"
           id="path13" /><path
           d="M412.894,47.565c1.928,0,3.874-0.657,5.47-1.997l32.683-27.435c3.61-3.029,4.087-8.405,1.05-12.023     c-3.004-3.593-8.388-4.079-12.015-1.05l-32.683,27.435c-3.61,3.029-4.079,8.405-1.05,12.023     C408.03,46.524,410.453,47.565,412.894,47.565z"
           id="path15" /><path
           d="M51.183,162.15H8.533c-4.71,0-8.533,3.823-8.533,8.533c0,4.71,3.823,8.533,8.533,8.533h42.65     c4.71,0,8.533-3.823,8.533-8.533C59.716,165.973,55.893,162.15,51.183,162.15z"
           id="path17" /><path
           d="M496.555,83.106c-1.604-4.42-6.511-6.716-10.931-5.094l-40.09,14.592c-4.437,1.613-6.716,6.511-5.103,10.94     c1.263,3.465,4.531,5.615,8.021,5.615c0.964,0,1.954-0.162,2.91-0.521l40.098-14.592     C495.889,92.433,498.176,87.535,496.555,83.106z"
           id="path19" /><path
           d="M256,0C161.894,0,85.333,76.561,85.333,170.667c0,72.021,28.245,125.747,88.909,169.079     c0.29,0.205,0.717,0.461,1.033,0.631c0.444,0.239,9.626,5.367,11.93,19.755c-9.634,3.678-16.538,12.954-16.538,23.868     c0,6.554,2.475,12.536,6.536,17.067c-4.062,4.531-6.536,10.513-6.536,17.067c0,6.554,2.475,12.535,6.536,17.067     c-4.062,4.531-6.536,10.513-6.536,17.067c0,14.114,11.486,25.6,25.6,25.6c4.71,0,8.533-3.823,8.533-8.533     s-3.823-8.533-8.533-8.533c-4.702,0-8.533-3.831-8.533-8.533c0-4.702,3.831-8.533,8.533-8.533H281.6     c4.719,0,8.533-3.823,8.533-8.533s-3.814-8.533-8.533-8.533h-85.333c-4.702,0-8.533-3.831-8.533-8.533s3.831-8.533,8.533-8.533     H281.6c4.719,0,8.533-3.823,8.533-8.533s-3.814-8.533-8.533-8.533h-85.333c-4.702,0-8.533-3.831-8.533-8.533     c0-4.702,3.831-8.533,8.533-8.533H281.6c4.719,0,8.533-3.823,8.533-8.533s-3.814-8.533-8.533-8.533h-77.38     c-3.021-21.487-16.947-30.797-20.437-32.811c-56.286-40.337-81.382-88.132-81.382-154.923c0-84.693,68.907-153.6,153.6-153.6     s153.6,68.907,153.6,153.6c0,66.79-25.097,114.586-81.382,154.923c-3.925,2.261-21.018,13.739-21.018,41.344     c0,4.71,3.814,8.533,8.533,8.533c4.71,0,8.533,3.831,8.533,8.533c0,4.702-3.823,8.533-8.533,8.533     c-4.719,0-8.533,3.823-8.533,8.533s3.814,8.533,8.533,8.533c4.71,0,8.533,3.831,8.533,8.533s-3.823,8.533-8.533,8.533     c-4.719,0-8.533,3.823-8.533,8.533s3.814,8.533,8.533,8.533c4.71,0,8.533,3.831,8.533,8.533c0,4.864-3.669,8.533-8.533,8.533     H230.4c-4.71,0-8.533,3.823-8.533,8.533V486.4c0,14.114,11.486,25.6,25.6,25.6h17.067c14.114,0,25.6-11.486,25.6-25.6v-8.533     h25.6c14.362,0,25.6-11.247,25.6-25.6c0-6.554-2.475-12.535-6.537-17.067c4.062-4.531,6.537-10.513,6.537-17.067     c0-6.554-2.475-12.535-6.537-17.067c4.062-4.531,6.537-10.513,6.537-17.067c0-10.914-6.904-20.19-16.546-23.868     c2.304-14.387,11.477-19.507,11.827-19.703c0.401-0.196,0.785-0.427,1.143-0.683c60.655-43.332,88.909-97.058,88.909-169.079     C426.667,76.561,350.106,0,256,0z M273.067,486.4c0,4.702-3.823,8.533-8.533,8.533h-17.067c-4.702,0-8.533-3.831-8.533-8.533     v-8.533h34.133V486.4z"
           id="path21" /><path
           d="M503.467,162.133H460.8c-4.719,0-8.533,3.823-8.533,8.533s3.814,8.533,8.533,8.533h42.667     c4.719,0,8.533-3.823,8.533-8.533S508.186,162.133,503.467,162.133z"
           id="path23" /></g></g></g><g
     id="g25" /><g
     id="g27" /><g
     id="g29" /><g
     id="g31" /><g
     id="g33" /><g
     id="g35" /><g
     id="g37" /><g
     id="g39" /><g
     id="g41" /><g
     id="g43" /><g
     id="g45" /><g
     id="g47" /><g
     id="g49" /><g
     id="g51" /><g
     id="g53" /><path
     style="fill:#ffffff"
     d="m 237.31659,508.68092 c -9.70496,-4.15182 -13.85896,-12.71574 -13.85896,-28.57173 0,-12.4293 0.67636,-15.17952 4.19636,-17.06338 2.50011,-1.33801 22.12408,-2.24581 48.54791,-2.24581 36.12476,0 44.83648,-0.58431 46.96584,-3.15001 4.2906,-5.16986 1.62818,-10.70239 -7.13624,-14.82924 -10.02899,-4.72229 -9.94291,-9.95877 0.23741,-14.4397 11.23946,-4.94709 11.59626,-19.64885 0.47685,-19.64885 -2.09423,0 -5.09097,-1.54624 -6.6594,-3.43608 -3.58997,-4.32566 -0.29445,-10.37082 6.18105,-11.33822 10.67759,-1.5952 11.94056,-16.4421 1.61905,-19.03262 -8.29156,-2.08107 -10.487,-6.24196 -8.895,-16.85819 1.94814,-12.991 10.12484,-24.71704 24.42674,-35.0298 6.61912,-4.77288 20.07907,-17.12282 29.91104,-27.44433 13.92329,-14.61652 20.12745,-23.30233 28.05643,-39.2789 23.22655,-46.80066 25.0497,-106.09393 4.61915,-150.22592 C 377.74585,66.647031 344.27596,36.920103 302.6898,23.208643 287.41381,18.171963 281.71049,17.461799 256,17.394948 c -27.29883,-0.07098 -30.57915,0.379661 -48.29552,6.634722 -49.54241,17.491784 -82.76245,51.418581 -99.61797,101.73736 -4.42734,13.21695 -5.02456,19.09521 -4.94373,48.66009 0.10722,39.21681 2.67126,51.27958 17.38169,81.77384 7.63386,15.82473 13.37942,23.88929 27.82162,39.05085 10.01053,10.50912 23.57477,22.99314 30.14276,27.74224 12.80485,9.2588 20.36323,18.64177 23.01328,28.56871 l 1.65149,6.18639 40.83474,1.08475 c 34.44055,0.91489 41.18,1.63306 43.03964,4.58648 1.2127,1.92594 1.59204,5.09882 0.84298,7.05084 -1.20234,3.13327 -6.81705,3.54912 -47.91911,3.54912 -39.43207,0 -47.07894,0.52174 -49.9664,3.4092 -1.87506,1.87505 -3.4092,5.09675 -3.4092,7.15933 0,8.28127 3.78322,8.95689 50.15477,8.95689 24.72139,0 46.49224,0.59258 48.37966,1.31686 4.06011,1.558 4.50364,7.59084 0.82828,11.26619 -1.86034,1.86034 -15.66855,2.60339 -48.37966,2.60339 -47.23396,0 -50.98305,0.65866 -50.98305,8.9569 0,2.06258 1.53414,5.28427 3.4092,7.15932 2.88746,2.88747 10.53433,3.40921 49.9664,3.40921 41.10206,0 46.71677,0.41585 47.91911,3.54911 0.74906,1.95202 0.36936,5.1249 -0.84379,7.05085 -1.88371,2.99053 -9.10538,3.66008 -49.46787,4.58648 -40.36249,0.92639 -47.58416,1.59594 -49.46787,4.58648 -3.31027,5.25526 -0.42807,10.08948 8.15314,13.67493 7.82685,3.27027 8.70514,4.76598 6.37076,10.84928 -1.71892,4.47944 -13.53898,4.5066 -19.90773,0.0458 -5.74236,-4.02213 -11.31779,-14.11035 -11.31779,-20.47851 0,-2.50496 1.44806,-7.3547 3.21792,-10.77721 2.83963,-5.49124 2.8412,-6.94504 0.0134,-12.36683 -4.07467,-7.81237 -4.04819,-13.20429 0.10396,-21.16654 2.98517,-5.72442 2.96413,-7.0702 -0.21524,-13.77024 -4.99935,-10.53536 -2.61677,-20.501 6.74661,-28.2191 7.06896,-5.82682 7.38647,-6.63578 5.13714,-13.08819 -1.59202,-4.56689 -8.34183,-11.55083 -20.09046,-20.78735 C 127.43742,301.39121 107.27223,272.7575 94.007478,229.28991 88.73897,212.0254 88.17596,206.8411 88.049444,174.42712 87.913347,139.55826 88.090248,138.11207 94.874995,118.62707 114.39148,62.578041 155.89348,22.912171 211.64819,7.0201635 c 24.47007,-6.97481175 64.23355,-6.97481175 88.70361,0 57.69036,16.4437335 100.14599,58.5053885 118.70363,117.6020965 4.48741,14.29012 5.05884,20.22793 4.89745,50.8896 -0.1638,31.1129 -0.78384,36.68867 -5.98068,53.77805 -13.1996,43.40572 -33.39407,72.08906 -72.27531,102.65666 -11.74864,9.23652 -18.49845,16.22046 -20.09047,20.78735 -2.24933,6.45241 -1.93182,7.26137 5.13714,13.08819 9.36337,7.7181 11.74595,17.68374 6.7466,28.2191 -3.17937,6.70004 -3.20041,8.04582 -0.21521,13.77024 4.15214,7.96225 4.17863,13.35417 0.10391,21.16654 -2.82782,5.42179 -2.82626,6.87559 0.013,12.36683 4.04218,7.81668 4.07149,13.68106 0.10674,21.34804 -5.31844,10.28471 -9.39967,12.14212 -29.20962,13.29358 l -18.66225,1.08475 -1.19077,10.36179 c -0.84408,7.34501 -2.90703,12.07806 -7.08565,16.2567 -5.27018,5.27017 -7.67298,5.95085 -22.67364,6.42308 -9.22831,0.29052 -18.84052,-0.3538 -21.36047,-1.43184 l 3.7e-4,0 z m 33.43595,-15.77245 c 1.43187,-1.43186 2.60339,-5.82508 2.60339,-9.76271 l 0,-7.15932 -17.35593,0 -17.35593,0 0,7.15932 c 0,9.97552 3.3552,12.3661 17.35593,12.3661 6.68203,0 13.32068,-1.17152 14.75254,-2.60339 z"
     id="path3387"
     inkscape:connector-curvature="0" /><path
     style="fill:#ffffff"
     d="M 77.872007,30.992636 C 64.205805,19.319678 60.012804,14.476733 60.516075,10.946414 c 1.296323,-9.0933767 8.96406,-6.6393323 26.911199,8.612877 13.230936,11.244189 17.142216,15.84759 17.142216,20.175619 0,10.169834 -7.388564,7.750398 -26.697483,-8.742274 z"
     id="path3389"
     inkscape:connector-curvature="0" /><path
     style="fill:#ffffff"
     d="M 38.548884,99.812684 C 19.76499,92.604726 14.999714,88.712347 17.376473,82.518612 c 1.986215,-5.175993 6.699861,-4.47135 30.81546,4.606602 19.459263,7.325145 21.665694,8.706025 21.665694,13.559326 0,7.8955 -9.123124,7.64145 -31.308743,-0.871856 z"
     id="path3391"
     inkscape:connector-curvature="0" /><path
     style="fill:#ffffff"
     d=""
     id="path3393"
     inkscape:connector-curvature="0" /><path
     style="fill:#ffffff"
     d="m 3.7746311,175.61609 c -1.4378549,-1.73251 -2.2762273,-4.9054 -1.86305,-7.05085 0.675218,-3.50613 3.4892186,-3.90083 27.8104529,-3.90083 24.321234,0 27.135234,0.3947 27.810454,3.90083 1.619768,8.41079 -3.260486,10.20086 -27.810454,10.20086 -17.750771,0 -23.9585771,-0.75363 -25.9474029,-3.15001 z"
     id="path3395"
     inkscape:connector-curvature="0" /><path
     style="fill:#ffffff"
     d="m 226.54737,330.33875 c -3.40374,-1.90483 -3.74059,-7.6241 -3.74059,-63.51024 l 0,-61.4169 -18.3807,-1.14673 c -21.30307,-1.32905 -31.38315,-5.63182 -40.98445,-17.49454 -6.75396,-8.34473 -9.98282,-25.40068 -7.03333,-37.15239 3.24425,-12.92615 24.51158,-29.27869 38.19509,-29.36837 9.38147,-0.0615 21.30341,4.22993 28.44473,10.23896 10.71151,9.01313 14.84223,20.4687 14.89745,41.31445 l 0.0477,17.98605 17.89831,-0.63011 17.8983,-0.63012 1.15331,-20.61017 c 1.23315,-22.03677 2.61258,-26.00361 12.21931,-35.13915 13.03291,-12.39365 29.8075,-15.54602 45.2934,-8.51175 30.77009,13.97691 33.0727,56.16206 3.99564,73.20236 -7.61533,4.46288 -13.48921,5.88887 -27.98132,6.79301 l -18.34261,1.14435 -0.57565,60.74908 c -0.50359,53.14508 -1.01395,61.02543 -4.07737,62.9568 -1.92595,1.21424 -5.09883,1.59484 -7.05084,0.84578 -3.17108,-1.21686 -3.54912,-7.95514 -3.54912,-63.26052 l 0,-61.8986 -18.44068,0 -18.44068,0 0,61.75418 c 0,56.93521 -0.30064,61.91507 -3.85263,63.81604 -2.44401,1.308 -5.22029,1.29649 -7.59322,-0.0315 z m -4.0671,-160.07868 c -0.65557,-16.73305 -1.44818,-20.08752 -5.85389,-24.77471 -11.62747,-12.37037 -28.74431,-12.81551 -39.75013,-1.03374 -12.51333,13.39556 -5.74007,37.66246 11.94092,42.78137 3.77903,1.09408 13.0698,2.07729 20.64615,2.18491 l 13.77518,0.19566 -0.75823,-19.35349 z m 102.21749,16.51917 c 11.01616,-3.79423 18.09172,-15.24319 16.78579,-27.16109 -1.93055,-17.61807 -18.03757,-27.72044 -35.17785,-22.06364 -12.15544,4.01166 -16.22679,12.57753 -16.23657,34.16074 l -0.008,17.89831 13.55932,-0.12245 c 7.45763,-0.0673 16.94246,-1.28768 21.07742,-2.71186 z"
     id="path3397"
     inkscape:connector-curvature="0" /><path
     style="fill:#ffffff"
     d="m 407.64746,43.823729 c -4.73977,-4.739766 -2.76755,-7.638621 15.88062,-23.342116 19.31876,-16.2681862 27.47087,-19.0110758 28.80319,-9.691239 0.48146,3.367866 -4.07781,8.412784 -18.13598,20.067797 -19.36543,16.055035 -22.11534,17.398048 -26.54783,12.965558 z"
     id="path3399"
     inkscape:connector-curvature="0" /><path
     style="fill:#ffffff"
     d=""
     id="path3401"
     inkscape:connector-curvature="0" /><path
     style="fill:#ffffff"
     d="m 442.59681,103.62376 c -2.47252,-6.443277 2.55671,-10.070275 24.86871,-17.934921 21.06994,-7.426837 22.23335,-7.604501 25.88495,-3.952903 6.07078,6.07079 1.52247,10.023091 -20.83752,18.106949 -22.79405,8.240785 -27.95444,8.892975 -29.91614,3.780875 z"
     id="path3403"
     inkscape:connector-curvature="0" /><path
     style="fill:#ffffff"
     d="m 455.8994,175.63893 c -3.37188,-2.50387 -3.73171,-3.90924 -1.80533,-7.05085 2.10144,-3.42709 5.64098,-3.92367 27.96695,-3.92367 21.49529,0 25.92368,0.57496 27.84114,3.61475 1.65465,2.62318 1.49786,4.55733 -0.57157,7.05085 -3.93779,4.74474 -47.12139,4.99441 -53.43119,0.30892 z"
     id="path3405"
     inkscape:connector-curvature="0" /></svg>