<?xml version="1.0" encoding="UTF-8" standalone="no"?>
<!-- Generator: Adobe Illustrator 16.0.0, SVG Export Plug-In . SVG Version: 6.00 Build 0)  -->

<svg
   xmlns:dc="http://purl.org/dc/elements/1.1/"
   xmlns:cc="http://creativecommons.org/ns#"
   xmlns:rdf="http://www.w3.org/1999/02/22-rdf-syntax-ns#"
   xmlns:svg="http://www.w3.org/2000/svg"
   xmlns="http://www.w3.org/2000/svg"
   xmlns:sodipodi="http://sodipodi.sourceforge.net/DTD/sodipodi-0.dtd"
   xmlns:inkscape="http://www.inkscape.org/namespaces/inkscape"
   version="1.1"
   id="Capa_1"
   x="0px"
   y="0px"
   width="377.043px"
   height="377.043px"
   viewBox="0 0 377.043 377.043"
   style="enable-background:new 0 0 377.043 377.043;"
   xml:space="preserve"
   inkscape:version="0.91 r13725"
   sodipodi:docname="power-button-sign-gris.svg"><metadata
     id="metadata45"><rdf:RDF><cc:Work
         rdf:about=""><dc:format>image/svg+xml</dc:format><dc:type
           rdf:resource="http://purl.org/dc/dcmitype/StillImage" /><dc:title></dc:title></cc:Work></rdf:RDF></metadata><defs
     id="defs43" /><sodipodi:namedview
     pagecolor="#ffffff"
     bordercolor="#666666"
     borderopacity="1"
     objecttolerance="10"
     gridtolerance="10"
     guidetolerance="10"
     inkscape:pageopacity="0"
     inkscape:pageshadow="2"
     inkscape:window-width="1855"
     inkscape:window-height="1056"
     id="namedview41"
     showgrid="false"
     inkscape:zoom="0.6259233"
     inkscape:cx="237.24951"
     inkscape:cy="188.5215"
     inkscape:window-x="65"
     inkscape:window-y="24"
     inkscape:window-maximized="1"
     inkscape:current-layer="Capa_1" /><g
     id="g3"><g
       id="g5"><path
         d="M337.771,103.538c-14.648-22.722-34.645-42.102-57.818-56.046c-4.334-2.607-9.736-2.682-14.141-0.191    c-4.402,2.49-7.127,7.157-7.127,12.216v29.031c0,4.379,2.045,8.508,5.529,11.162c31.094,23.686,49.654,61.019,49.654,99.866    c0,69.115-56.23,125.345-125.346,125.345c-69.116,0-125.346-56.229-125.346-125.345c0-38.848,18.562-76.181,49.654-99.866    c3.483-2.654,5.529-6.783,5.529-11.162V59.517c0-5.059-2.724-9.726-7.126-12.216c-4.405-2.49-9.808-2.416-14.142,0.191    c-23.176,13.944-43.169,33.324-57.819,56.046c-18.46,28.63-28.218,61.838-28.218,96.038c0,47.402,18.46,91.969,51.979,125.488    c33.521,33.52,78.086,51.979,125.488,51.979c47.402,0,91.968-18.459,125.488-51.979c33.518-33.52,51.979-78.086,51.979-125.488    C365.99,165.376,356.232,132.167,337.771,103.538z"
         id="path7" /><path
         d="M172.129,215.535h32.789c7.257,0,13.16-5.905,13.16-13.162V13.162c0-7.257-5.903-13.162-13.16-13.162h-32.789    c-7.257,0-13.161,5.904-13.161,13.162v189.211C158.968,209.63,164.873,215.535,172.129,215.535z"
         id="path9" /></g></g><g
     id="g11" /><g
     id="g13" /><g
     id="g15" /><g
     id="g17" /><g
     id="g19" /><g
     id="g21" /><g
     id="g23" /><g
     id="g25" /><g
     id="g27" /><g
     id="g29" /><g
     id="g31" /><g
     id="g33" /><g
     id="g35" /><g
     id="g37" /><g
     id="g39" /><path
     style="fill:#ffffff"
     d="M 157.61559,373.63674 C 122.59472,367.0204 91.939868,351.21036 66.56482,326.67795 3.9882177,266.1793 -6.0642586,173.87784 42.051948,101.60166 59.254633,75.761207 92.33737,46.970611 104.82746,46.970611 c 10.91743,0 14.09851,7.705115 13.16057,31.87711 l -0.5615,14.470599 -13.24672,12.82502 C 70.003102,139.23206 56.190627,181.27433 65.215865,224.7414 77.537564,284.08477 127.81273,324.93756 188.5215,324.93756 c 35.07476,0 65.56318,-12.57346 89.54161,-36.92708 41.68089,-42.33306 48.2638,-107.43583 15.87956,-157.04352 -4.30803,-6.59924 -13.79379,-17.76987 -21.07948,-24.82362 L 259.61647,93.31832 259.05498,78.847721 c -0.67401,-17.370058 0.49692,-24.623148 4.64471,-28.770942 7.77943,-7.779445 22.9975,-0.359229 47.60717,23.212925 52.8464,50.618436 68.39619,130.049166 38.6881,197.624816 -8.28755,18.85133 -19.06512,34.62475 -34.93125,51.1234 -22.67134,23.57513 -51.49535,40.49281 -82.96283,48.69335 -19.93342,5.19471 -55.10606,6.56671 -74.48529,2.90547 z"
     id="path3373"
     inkscape:connector-curvature="0" /><path
     style="fill:#ffffff"
     d="m 165.5368,212.67494 c -6.15814,-4.72807 -6.25211,-6.3184 -6.25211,-105.8107 l 0,-96.8851359 4.67002,-4.6700241 c 4.66116,-4.66115014 4.7078,-4.67002407 24.54797,-4.67002407 17.69083,0 20.3411,0.36432437 24.08749,3.31123647 l 4.20955,3.3112367 0,100.4193909 0,100.4194 -4.20955,3.31124 c -3.76276,2.95978 -6.3487,3.30583 -24.36401,3.26043 -13.31828,-0.0335 -21.01426,-0.71097 -22.68936,-1.99705 z"
     id="path3375"
     inkscape:connector-curvature="0" /></svg>