<?xml version="1.0" encoding="UTF-8" standalone="no"?>
<!-- Generator: Adobe Illustrator 19.0.0, SVG Export Plug-In . SVG Version: 6.00 Build 0)  -->

<svg
   xmlns:dc="http://purl.org/dc/elements/1.1/"
   xmlns:cc="http://creativecommons.org/ns#"
   xmlns:rdf="http://www.w3.org/1999/02/22-rdf-syntax-ns#"
   xmlns:svg="http://www.w3.org/2000/svg"
   xmlns="http://www.w3.org/2000/svg"
   xmlns:sodipodi="http://sodipodi.sourceforge.net/DTD/sodipodi-0.dtd"
   xmlns:inkscape="http://www.inkscape.org/namespaces/inkscape"
   version="1.1"
   id="Layer_1"
   x="0px"
   y="0px"
   viewBox="0 0 502 502"
   style="enable-background:new 0 0 502 502;"
   xml:space="preserve"
   inkscape:version="0.91 r13725"
   sodipodi:docname="tap-gris.svg"><metadata
     id="metadata53"><rdf:RDF><cc:Work
         rdf:about=""><dc:format>image/svg+xml</dc:format><dc:type
           rdf:resource="http://purl.org/dc/dcmitype/StillImage" /><dc:title></dc:title></cc:Work></rdf:RDF></metadata><defs
     id="defs51" /><sodipodi:namedview
     pagecolor="#ffffff"
     bordercolor="#666666"
     borderopacity="1"
     objecttolerance="10"
     gridtolerance="10"
     guidetolerance="10"
     inkscape:pageopacity="0"
     inkscape:pageshadow="2"
     inkscape:window-width="1855"
     inkscape:window-height="1056"
     id="namedview49"
     showgrid="false"
     inkscape:zoom="0.47011952"
     inkscape:cx="315.87712"
     inkscape:cy="251"
     inkscape:window-x="65"
     inkscape:window-y="24"
     inkscape:window-maximized="1"
     inkscape:current-layer="Layer_1" /><g
     id="g3"><g
       id="g5"><g
         id="g7"><path
           d="M438.6,105.682h-30.26V93.875c0-5.523-4.478-10-10-10H295.453c-5.522,0-10,4.477-10,10v11.808H175.42     c-67.282,0-122.02,54.738-122.02,122.02v108.851c0,5.523,4.478,10,10,10h106.241c5.522,0,10-4.477,10-10v-83.129     c0-11.855,9.645-21.5,21.5-21.5h84.312v11.808c0,5.523,4.478,10,10,10H398.34c5.522,0,10-4.477,10-10v-11.808h30.26     c5.522,0,10-4.477,10-10V115.682C448.6,110.159,444.122,105.682,438.6,105.682z M285.453,211.922h-84.311v0.001     c-22.883,0-41.5,18.617-41.5,41.5v73.129H73.4v-98.851c0-56.254,45.766-102.02,102.02-102.02h110.033V211.922z M388.34,115.682     v106.241v11.808h-82.887v-11.808V115.682v-11.808h82.887V115.682z M428.6,211.923h-20.26v-86.241h20.26V211.923z"
           id="path9" /><path
           d="M210.984,160.91h22.366c5.522,0,10-4.477,10-10c0-5.523-4.478-10-10-10h-22.366c-5.522,0-10,4.477-10,10     C200.984,156.433,205.462,160.91,210.984,160.91z"
           id="path11" /><path
           d="M88.628,230.033c0,5.523,4.478,10,10,10c5.522,0,10-4.477,10-10c0-38.114,31.008-69.123,69.122-69.123     c5.522,0,10-4.477,10-10c0-5.523-4.478-10-10-10C128.608,140.91,88.628,180.89,88.628,230.033z"
           id="path13" /><path
           d="M279.797,20h58.218v34.733c0,5.523,4.478,10,10,10c5.522,0,10-4.477,10-10V20h58.219c5.522,0,10-4.477,10-10     s-4.478-10-10-10H279.797c-5.522,0-10,4.477-10,10S274.274,20,279.797,20z"
           id="path15" /><path
           d="M110.93,385.824c-3.438,0-6.636,1.767-8.466,4.677c-5.366,8.536-32.136,52.068-32.136,70.897     c0,22.388,18.214,40.602,40.602,40.602s40.602-18.214,40.602-40.602c0-18.83-26.77-62.362-32.136-70.897     C117.565,387.59,114.368,385.824,110.93,385.824z M110.93,482c-11.359,0-20.602-9.242-20.602-20.602     c0-6.902,9.613-27.002,20.602-46.144c10.988,19.142,20.602,39.242,20.602,46.144C131.531,472.758,122.289,482,110.93,482z"
           id="path17" /></g></g></g><g
     id="g19" /><g
     id="g21" /><g
     id="g23" /><g
     id="g25" /><g
     id="g27" /><g
     id="g29" /><g
     id="g31" /><g
     id="g33" /><g
     id="g35" /><g
     id="g37" /><g
     id="g39" /><g
     id="g41" /><g
     id="g43" /><g
     id="g45" /><g
     id="g47" /><path
     style="fill:#f9f9f9"
     d="m 305.12214,168.89322 c 0,-35.68241 0.2911,-50.27977 0.64688,-32.43856 0.35578,17.84121 0.35578,47.03591 0,64.87712 -0.35578,17.84121 -0.64688,3.24386 -0.64688,-32.43856 z"
     id="path3381"
     inkscape:connector-curvature="0" /><path
     style="fill:#f9f9f9"
     d="m 56.897217,342.37768 c -1.894996,-2.28334 -2.350553,-20.61629 -1.783917,-71.79026 0.750561,-67.78474 0.835553,-68.91799 6.21961,-82.93027 11.578189,-30.13282 34.452638,-55.42318 61.91791,-68.45745 23.18952,-11.00511 31.47772,-11.99292 100.62676,-11.99292 l 62.6453,0 0,-8.387859 c 0,-14.545634 1.87725,-15.010446 60.62288,-15.010446 58.74564,0 60.62288,0.464812 60.62288,15.010446 l 0,8.387859 18.00568,0 c 15.62467,0 18.29684,0.54407 20.20763,4.1144 2.96803,5.54582 2.96803,109.59826 0,115.14408 -1.91079,3.57033 -4.58296,4.1144 -20.20763,4.1144 l -18.00568,0 0,8.08305 c 0,4.44568 -1.14864,9.2317 -2.55254,10.6356 -3.6352,3.63521 -112.50547,3.63521 -116.14068,0 -1.40389,-1.4039 -2.55254,-6.18992 -2.55254,-10.6356 l 0,-8.08305 -44.77512,0 c -65.75205,0 -63.70793,-2.09992 -63.70793,65.44693 0,31.62904 -0.7306,45.04299 -2.55254,46.86494 -1.85774,1.85774 -17.999,2.55254 -59.29887,2.55254 -46.823952,0 -57.191309,-0.53619 -59.291203,-3.06639 z M 161.02288,286.55633 c 0,-49.37715 1.90044,-56.13391 18.8035,-66.85351 l 9.68194,-6.14011 48.50728,0 48.50728,0 0,-44.66949 0,-44.66949 -59.02754,0.0369 c -66.28969,0.0415 -79.61189,1.76077 -100.688,12.99422 -27.621618,14.72217 -48.422684,44.35396 -52.904514,75.3642 -2.368977,16.39118 -3.039397,112.15142 -0.800848,114.38995 0.779942,0.77995 20.881213,1.41809 44.669492,1.41809 l 43.25141,0 0,-41.87079 z m 227.6017,-117.66311 0,-65.94068 -42.54238,0 -42.54237,0 0,65.94068 0,65.94068 42.54237,0 42.54238,0 0,-65.94068 z m 40.41525,0 0,-44.66949 -10.63559,0 -10.6356,0 0,44.66949 0,44.66949 10.6356,0 10.63559,0 0,-44.66949 z"
     id="path3383"
     inkscape:connector-curvature="0" /><path
     style="fill:#f9f9f9"
     d="m 92.122893,234.30212 c -2.414635,-3.77986 -2.638398,-7.4691 -1.064379,-17.54873 5.763798,-36.90992 35.269596,-66.56211 73.213116,-73.57635 15.14644,-2.79997 22.27668,-0.39452 22.27668,7.51523 0,6.44016 -4.07909,8.72727 -18.44648,10.34281 -30.05567,3.37961 -55.89596,29.84688 -59.58981,61.03569 -1.91685,16.18478 -10.006732,22.22233 -16.389127,12.23135 z"
     id="path3385"
     inkscape:connector-curvature="0" /><path
     style="fill:#f9f9f9"
     d="m 204.95849,156.4948 c -7.82304,-8.64437 -0.68955,-15.25412 16.46282,-15.25412 14.76039,0 20.43208,2.65708 20.43208,9.57203 0,6.95731 -5.68224,9.57204 -20.80167,9.57204 -9.47897,0 -13.43915,-0.95723 -16.09323,-3.88995 z"
     id="path3387"
     inkscape:connector-curvature="0" /><path
     style="fill:#f9f9f9"
     d="m 343.42331,62.366908 c -3.12965,-1.822853 -3.72246,-5.3694 -3.72246,-22.270062 l 0,-20.101931 -29.9195,0 c -31.8407,0 -38.1483,-1.524714 -38.1483,-9.22145 0,-9.79200352 1.00799,-9.92261754 76.57627,-9.92261754 75.71798,0 76.57627,0.11264518 76.57627,10.05010554 0,7.407741 -7.32235,9.093962 -39.49017,9.093962 l -28.57762,0 0,18.99213 c 0,14.429416 -0.80304,19.79517 -3.34262,22.334746 -3.87455,3.874557 -4.90774,3.983059 -9.95187,1.045117 z"
     id="path3389"
     inkscape:connector-curvature="0" /><path
     style="fill:#f9f9f9"
     d="m 93.313021,496.15951 c -13.693037,-6.77788 -20.565563,-18.39293 -20.565563,-34.75723 0,-11.6859 1.310699,-15.64819 12.595708,-38.07724 14.853044,-29.52057 22.361894,-38.82865 28.620924,-35.47892 5.36235,2.86985 24.08952,35.55216 31.27704,54.58414 3.97824,10.53405 5.26206,17.25503 4.53983,23.76672 -2.94982,26.59607 -32.06185,42.04324 -56.467939,29.96253 z m 30.959109,-17.92565 c 5.11217,-3.30609 8.8386,-14.07021 7.42713,-21.45388 -1.38934,-7.26787 -18.30877,-39.82999 -20.66367,-39.76805 -2.7208,0.0716 -14.813064,22.20623 -19.191648,35.12997 -3.014827,8.8985 -3.029158,10.70302 -0.139922,17.61793 5.359771,12.82774 19.96132,16.62698 32.56811,8.47403 z"
     id="path3391"
     inkscape:connector-curvature="0" /></svg>