<?xml version="1.0" encoding="UTF-8" standalone="no"?>
<!-- Generator: Adobe Illustrator 19.0.0, SVG Export Plug-In . SVG Version: 6.00 Build 0)  -->

<svg
   xmlns:dc="http://purl.org/dc/elements/1.1/"
   xmlns:cc="http://creativecommons.org/ns#"
   xmlns:rdf="http://www.w3.org/1999/02/22-rdf-syntax-ns#"
   xmlns:svg="http://www.w3.org/2000/svg"
   xmlns="http://www.w3.org/2000/svg"
   xmlns:sodipodi="http://sodipodi.sourceforge.net/DTD/sodipodi-0.dtd"
   xmlns:inkscape="http://www.inkscape.org/namespaces/inkscape"
   version="1.1"
   id="Layer_1"
   x="0px"
   y="0px"
   viewBox="0 0 700 700"
   xml:space="preserve"
   inkscape:version="0.91 r13725"
   sodipodi:docname="light-bulb-blue.svg"
   width="700"
   height="700"><metadata
     id="metadata59"><rdf:RDF><cc:Work
         rdf:about=""><dc:format>image/svg+xml</dc:format><dc:type
           rdf:resource="http://purl.org/dc/dcmitype/StillImage" /><dc:title></dc:title></cc:Work></rdf:RDF></metadata><defs
     id="defs57" /><sodipodi:namedview
     pagecolor="#ffffff"
     bordercolor="#666666"
     borderopacity="1"
     objecttolerance="10"
     gridtolerance="10"
     guidetolerance="10"
     inkscape:pageopacity="0"
     inkscape:pageshadow="2"
     inkscape:window-width="1855"
     inkscape:window-height="1056"
     id="namedview55"
     showgrid="false"
     inkscape:zoom="0.4609375"
     inkscape:cx="322.16949"
     inkscape:cy="256"
     inkscape:window-x="65"
     inkscape:window-y="24"
     inkscape:window-maximized="1"
     inkscape:current-layer="Layer_1" /><g
     id="g25"
     transform="translate(0,188)" /><g
     id="g27"
     transform="translate(0,188)" /><g
     id="g29"
     transform="translate(0,188)" /><g
     id="g31"
     transform="translate(0,188)" /><g
     id="g33"
     transform="translate(0,188)" /><g
     id="g35"
     transform="translate(0,188)" /><g
     id="g37"
     transform="translate(0,188)" /><g
     id="g39"
     transform="translate(0,188)" /><g
     id="g41"
     transform="translate(0,188)" /><g
     id="g43"
     transform="translate(0,188)" /><g
     id="g45"
     transform="translate(0,188)" /><g
     id="g47"
     transform="translate(0,188)" /><g
     id="g49"
     transform="translate(0,188)" /><g
     id="g51"
     transform="translate(0,188)" /><g
     id="g53"
     transform="translate(0,188)" /><ellipse
     style="fill:#ff0000"
     id="path3387"
     cx="352.88135"
     cy="351.05087"
     rx="352.54236"
     ry="349.28815" /><g
     id="g3"
     transform="translate(94.81356,118.84746)"
     style="fill:#f9f9f9"><g
       id="g5"
       style="fill:#f9f9f9"><g
         id="g7"
         style="fill:#f9f9f9"><path
           d="m 281.6,332.8 c 4.719,0 8.533,-3.823 8.533,-8.533 l 0,-119.467 25.6,0 c 23.526,0 42.667,-19.14 42.667,-42.667 0,-23.526 -19.14,-42.667 -42.667,-42.667 -23.526,0 -42.667,19.14 -42.667,42.667 l 0,25.6 -34.133,0 0,-25.6 c 0,-23.526 -19.14,-42.667 -42.667,-42.667 -23.526,0 -42.667,19.14 -42.667,42.667 0,23.526 19.14,42.667 42.667,42.667 l 25.6,0 0,119.467 c 0,4.71 3.823,8.533 8.533,8.533 4.71,0 8.533,-3.823 8.533,-8.533 l 0,-119.467 34.133,0 0,119.467 c 0.002,4.71 3.816,8.533 8.535,8.533 z m 8.533,-170.667 c 0,-14.114 11.486,-25.6 25.6,-25.6 14.114,0 25.6,11.486 25.6,25.6 0,14.114 -11.486,25.6 -25.6,25.6 l -25.6,0 0,-25.6 z m -68.266,25.6 -25.6,0 c -14.114,0 -25.6,-11.486 -25.6,-25.6 0,-14.114 11.486,-25.6 25.6,-25.6 14.114,0 25.6,11.486 25.6,25.6 l 0,25.6 z"
           id="path9"
           inkscape:connector-curvature="0"
           style="fill:#f9f9f9" /><path
           d="m 60.928,18.15 32.666,27.418 c 1.604,1.348 3.55,1.997 5.487,1.997 2.432,0 4.855,-1.033 6.536,-3.046 3.029,-3.61 2.56,-8.994 -1.05,-12.023 L 71.902,5.077 c -3.61,-3.021 -8.986,-2.551 -12.023,1.05 -3.03,3.618 -2.561,8.994 1.049,12.023 z"
           id="path11"
           inkscape:connector-curvature="0"
           style="fill:#f9f9f9" /><path
           d="M 66.449,92.612 26.368,78.029 c -4.429,-1.604 -9.318,0.674 -10.94,5.103 -1.604,4.429 0.674,9.327 5.103,10.94 l 40.081,14.583 c 0.964,0.35 1.946,0.521 2.918,0.521 3.482,0 6.758,-2.159 8.021,-5.623 1.614,-4.43 -0.673,-9.328 -5.102,-10.941 z"
           id="path13"
           inkscape:connector-curvature="0"
           style="fill:#f9f9f9" /><path
           d="m 412.894,47.565 c 1.928,0 3.874,-0.657 5.47,-1.997 l 32.683,-27.435 c 3.61,-3.029 4.087,-8.405 1.05,-12.023 -3.004,-3.593 -8.388,-4.079 -12.015,-1.05 l -32.683,27.435 c -3.61,3.029 -4.079,8.405 -1.05,12.023 1.681,2.006 4.104,3.047 6.545,3.047 z"
           id="path15"
           inkscape:connector-curvature="0"
           style="fill:#f9f9f9" /><path
           d="m 51.183,162.15 -42.65,0 c -4.71,0 -8.533,3.823 -8.533,8.533 0,4.71 3.823,8.533 8.533,8.533 l 42.65,0 c 4.71,0 8.533,-3.823 8.533,-8.533 0,-4.71 -3.823,-8.533 -8.533,-8.533 z"
           id="path17"
           inkscape:connector-curvature="0"
           style="fill:#f9f9f9" /><path
           d="m 496.555,83.106 c -1.604,-4.42 -6.511,-6.716 -10.931,-5.094 l -40.09,14.592 c -4.437,1.613 -6.716,6.511 -5.103,10.94 1.263,3.465 4.531,5.615 8.021,5.615 0.964,0 1.954,-0.162 2.91,-0.521 L 491.46,94.046 c 4.429,-1.613 6.716,-6.511 5.095,-10.94 z"
           id="path19"
           inkscape:connector-curvature="0"
           style="fill:#f9f9f9" /><path
           d="M 256,0 C 161.894,0 85.333,76.561 85.333,170.667 c 0,72.021 28.245,125.747 88.909,169.079 0.29,0.205 0.717,0.461 1.033,0.631 0.444,0.239 9.626,5.367 11.93,19.755 -9.634,3.678 -16.538,12.954 -16.538,23.868 0,6.554 2.475,12.536 6.536,17.067 -4.062,4.531 -6.536,10.513 -6.536,17.067 0,6.554 2.475,12.535 6.536,17.067 -4.062,4.531 -6.536,10.513 -6.536,17.067 0,14.114 11.486,25.6 25.6,25.6 4.71,0 8.533,-3.823 8.533,-8.533 0,-4.71 -3.823,-8.533 -8.533,-8.533 -4.702,0 -8.533,-3.831 -8.533,-8.533 0,-4.702 3.831,-8.533 8.533,-8.533 l 85.333,0 c 4.719,0 8.533,-3.823 8.533,-8.533 0,-4.71 -3.814,-8.533 -8.533,-8.533 l -85.333,0 c -4.702,0 -8.533,-3.831 -8.533,-8.533 0,-4.702 3.831,-8.533 8.533,-8.533 l 85.333,0 c 4.719,0 8.533,-3.823 8.533,-8.533 0,-4.71 -3.814,-8.533 -8.533,-8.533 l -85.333,0 c -4.702,0 -8.533,-3.831 -8.533,-8.533 0,-4.702 3.831,-8.533 8.533,-8.533 l 85.333,0 c 4.719,0 8.533,-3.823 8.533,-8.533 0,-4.71 -3.814,-8.533 -8.533,-8.533 l -77.38,0 c -3.021,-21.487 -16.947,-30.797 -20.437,-32.811 -56.286,-40.337 -81.382,-88.132 -81.382,-154.923 0,-84.693 68.907,-153.6 153.6,-153.6 84.693,0 153.6,68.907 153.6,153.6 0,66.79 -25.097,114.586 -81.382,154.923 -3.925,2.261 -21.018,13.739 -21.018,41.344 0,4.71 3.814,8.533 8.533,8.533 4.71,0 8.533,3.831 8.533,8.533 0,4.702 -3.823,8.533 -8.533,8.533 -4.719,0 -8.533,3.823 -8.533,8.533 0,4.71 3.814,8.533 8.533,8.533 4.71,0 8.533,3.831 8.533,8.533 0,4.702 -3.823,8.533 -8.533,8.533 -4.719,0 -8.533,3.823 -8.533,8.533 0,4.71 3.814,8.533 8.533,8.533 4.71,0 8.533,3.831 8.533,8.533 0,4.864 -3.669,8.533 -8.533,8.533 l -85.334,0 c -4.71,0 -8.533,3.823 -8.533,8.533 l 0,17.065 c 0,14.114 11.486,25.6 25.6,25.6 l 17.067,0 c 14.114,0 25.6,-11.486 25.6,-25.6 l 0,-8.533 25.6,0 c 14.362,0 25.6,-11.247 25.6,-25.6 0,-6.554 -2.475,-12.535 -6.537,-17.067 4.062,-4.531 6.537,-10.513 6.537,-17.067 0,-6.554 -2.475,-12.535 -6.537,-17.067 4.062,-4.531 6.537,-10.513 6.537,-17.067 0,-10.914 -6.904,-20.19 -16.546,-23.868 2.304,-14.387 11.477,-19.507 11.827,-19.703 0.401,-0.196 0.785,-0.427 1.143,-0.683 60.655,-43.332 88.909,-97.058 88.909,-169.079 C 426.667,76.561 350.106,0 256,0 Z m 17.067,486.4 c 0,4.702 -3.823,8.533 -8.533,8.533 l -17.067,0 c -4.702,0 -8.533,-3.831 -8.533,-8.533 l 0,-8.533 34.133,0 0,8.533 z"
           id="path21"
           inkscape:connector-curvature="0"
           style="fill:#f9f9f9" /><path
           d="m 503.467,162.133 -42.667,0 c -4.719,0 -8.533,3.823 -8.533,8.533 0,4.71 3.814,8.533 8.533,8.533 l 42.667,0 c 4.719,0 8.533,-3.823 8.533,-8.533 0,-4.71 -3.814,-8.533 -8.533,-8.533 z"
           id="path23"
           inkscape:connector-curvature="0"
           style="fill:#f9f9f9" /></g></g></g><path
     style="fill:#00cc00"
     d="M 311.10508,697.33981 C 155.26059,674.00828 41.427692,569.67977 8.0329522,419.57246 3.9667165,401.29497 3.2771886,391.51349 3.2399189,351.57966 3.1908337,298.98583 6.0422153,280.37806 20.576141,238.44554 60.425826,123.47333 159.26684,36.144948 278.14116,10.880725 340.72428,-2.4199938 403.57109,0.98567044 464.05424,20.955343 633.67658,76.959412 734.6435,252.70797 696.24105,425.11245 666.19418,560.00527 561.49684,662.48862 423.21814,692.36189 c -16.23411,3.50716 -30.58673,4.69619 -63.2995,5.24395 -23.26779,0.38959 -45.23389,0.26988 -48.81356,-0.26603 z m 65.33038,-73.02111 c 6.22288,-5.70286 8.00532,-9.1678 8.92824,-17.35593 l 1.15313,-10.23057 16.90734,0 c 14.9823,0 17.6601,-0.6334 23.51879,-5.56318 8.92427,-7.50926 11.78262,-18.36173 7.84579,-29.78846 -2.21394,-6.42602 -2.41063,-9.94205 -0.73168,-13.07922 2.87881,-5.37906 2.79053,-20.43203 -0.14058,-23.96372 -1.5096,-1.81897 -1.24265,-5.43736 0.84913,-11.50877 3.99035,-11.58209 1.10874,-22.34018 -8.04766,-30.04478 -6.83099,-5.74792 -6.83349,-5.75792 -3.13782,-12.61404 2.03422,-3.77385 7.32034,-9.30223 11.74691,-12.28528 13.23405,-8.91839 41.62501,-37.03509 51.83028,-51.32957 20.91995,-29.30245 32.44724,-64.54298 34.65945,-105.95857 4.3584,-81.5954 -45.74269,-152.6796 -123.93203,-175.83672 -16.20105,-4.79823 -23.95792,-5.80631 -45.55933,-5.92089 -30.21125,-0.16024 -47.47941,3.35864 -71.93888,14.65961 -63.32243,29.25676 -100.47432,87.51903 -100.52049,157.638 -0.0439,66.62868 24.23387,116.65757 77.33789,159.36935 23.05377,18.54225 26.34576,24.55871 17.51652,32.01332 -10.38907,8.7716 -13.0058,20.16837 -7.20588,31.38417 2.59577,5.01966 2.60729,6.71104 0.0768,11.28209 -3.77127,6.81255 -3.81143,16.88789 -0.0942,23.59559 2.40393,4.33766 2.39338,6.13907 -0.0636,10.84745 -8.69076,16.65499 3.91724,37.10362 22.87697,37.10362 12.04235,0 13.87765,-15.98548 2.0375,-17.74678 -5.70167,-0.84817 -9.53153,-6.44888 -7.69053,-11.24647 1.2026,-3.13327 6.81728,-3.54912 47.91936,-3.54912 39.43205,0 47.07893,-0.52174 49.96639,-3.4092 1.87507,-1.87505 3.4092,-5.09675 3.4092,-7.15933 0,-8.29824 -3.74907,-8.95689 -50.98305,-8.95689 -32.71111,0 -46.51932,-0.74305 -48.37966,-2.60339 -3.67536,-3.67536 -3.23183,-9.7082 0.82829,-11.26619 1.88741,-0.72429 23.65826,-1.31686 48.37966,-1.31686 45.93992,0 50.199,-0.72819 50.12155,-8.5695 -0.0933,-9.43307 -1.95647,-9.82215 -52.46757,-10.95593 -44.30514,-0.99447 -48.38943,-1.40939 -49.0754,-4.98558 -1.81306,-9.45234 1.88703,-10.20086 50.42487,-10.20086 47.44409,0 51.15131,-0.65147 51.15131,-8.98885 0,-8.89743 -7.50013,-10.53657 -48.21154,-10.53657 -28.26659,0 -38.56812,-0.68626 -38.56812,-2.56929 0,-8.27448 -10.03008,-21.88689 -23.46884,-31.85087 -52.48445,-38.91391 -76.4342,-85.35769 -76.78448,-148.90188 -0.37856,-68.67469 40.35147,-125.78626 105.15121,-147.44282 37.00773,-12.36827 76.56943,-9.26269 114.31851,8.97397 17.19964,8.30917 23.52306,12.92429 39.23231,28.63355 15.51162,15.51162 20.47455,22.26626 28.89919,39.33238 11.75523,23.81308 16.49349,43.57248 16.54664,69.00261 0.13039,62.42814 -22.09842,107.09919 -73.45141,147.60754 -21.38422,16.86834 -27.09037,25.73126 -27.27496,42.36407 -0.0885,7.97749 0.81469,11.03979 3.67929,12.47458 2.08813,1.04587 5.50508,2.74018 7.59322,3.76515 6.23141,3.05868 4.55292,9.73581 -3.31804,13.19945 -11.24109,4.94664 -11.59917,19.64885 -0.47857,19.64885 2.09423,0 5.09097,1.54624 6.65941,3.43608 3.58996,4.32566 0.29444,10.37082 -6.18106,11.33822 -11.41771,1.70576 -11.74747,15.68403 -0.46282,19.61789 8.29364,2.89117 10.73358,8.62613 5.34604,12.5656 -3.07588,2.24914 -14.53364,2.94051 -48.73216,2.94051 -31.88239,0 -45.45772,0.74696 -47.31416,2.60339 -3.74862,3.74862 -3.28242,28.84135 0.67812,36.5002 4.97059,9.61206 12.84035,12.77852 32.0046,12.87734 16.07025,0.0829 17.20318,-0.24101 24.62054,-7.0385 z M 329.68839,451.29995 c 3.99793,-2.13964 4.19636,-5.16584 4.19636,-64 l 0,-61.75419 16.27118,0 16.27119,0 0,60.62276 c 0,60.03061 0.0466,60.65544 4.78073,63.97129 4.07637,2.85521 5.43486,2.91441 9.22034,0.40192 4.27314,-2.83613 4.46119,-5.2234 5.01526,-63.66757 l 0.57563,-60.72094 18.34262,-1.14436 c 14.56707,-0.9088 20.35358,-2.32286 28.11246,-6.86985 20.93486,-12.26867 27.45123,-39.72586 14.33611,-60.40628 -15.0047,-23.65993 -45.83014,-27.02286 -66.36776,-7.24044 -10.74024,10.34531 -13.98589,19.8213 -14.00329,40.88398 l -0.0121,14.64407 -16.27119,0 -16.27118,0 0,-17.75573 c 0,-22.64511 -5.10371,-34.3104 -18.81585,-43.00637 -12.91056,-8.18764 -22.32446,-9.62347 -36.35439,-5.54485 -26.67442,7.75446 -39.4854,39.96262 -25.22346,63.41445 9.11425,14.98722 25.55355,22.25855 50.56319,22.36488 l 12.47457,0.053 0,61.72271 c 0,56.4948 0.32157,61.91 3.79661,63.93402 4.76334,2.77439 4.36873,2.77029 9.36297,0.0974 l 0,4e-5 z M 152.019,295.92138 c 4.86518,-4.40292 5.02799,-8.056 0.55824,-12.52574 -4.96218,-4.96216 -51.13468,-4.96216 -56.096852,0 -4.23524,4.23524 -4.238221,5.28923 -0.03194,11.29451 3.145501,4.49085 5.031947,4.82171 27.490187,4.82171 19.39284,0 24.88956,-0.70282 28.08037,-3.59048 z m 451.02532,1.34467 c 4.6907,-2.51038 5.57858,-10.6906 1.59297,-14.67622 -1.72562,-1.72561 -11.08851,-2.60339 -27.76949,-2.60339 -16.68099,0 -26.04388,0.87778 -27.76949,2.60339 -3.83643,3.83642 -3.16497,12.04035 1.19322,14.57877 4.99015,2.90649 47.3578,2.98476 52.75279,0.0974 l 0,4e-5 z M 165.74915,219.52312 c 0,-7.30117 -0.0299,-7.32186 -22.77966,-15.75318 -12.81086,-4.74784 -24.85255,-7.95482 -27.51642,-7.32824 -6.36437,1.49698 -8.66629,9.24097 -4.10327,13.80399 5.11376,5.11375 40.22691,17.62527 47.89088,17.06446 5.84981,-0.42805 6.50847,-1.21611 6.50847,-7.78703 z m 400.17042,1.79506 c 9.94711,-3.63023 19.89668,-7.56967 22.11017,-8.75428 4.95415,-2.65139 5.25195,-11.29866 0.52424,-15.22231 -2.97667,-2.47042 -6.62749,-1.81986 -24.40678,4.34919 -11.49859,3.98978 -23.10313,8.61692 -25.78788,10.28254 -8.32735,5.16629 -5.01495,15.94532 4.90002,15.94532 2.516,0 12.71313,-2.9702 22.66023,-6.60046 z M 201.95029,161.72769 c 2.94523,-6.46409 0.28379,-9.8437 -22.34095,-28.3695 -14.38723,-11.78068 -20.5114,-13.98833 -25.35849,-9.14124 -5.39241,5.39241 -2.12775,10.68737 16.37966,26.56623 20.59839,17.67286 27.20263,19.98067 31.31978,10.94451 z m 328.14422,-10.13013 c 16.94067,-14.04477 18.72285,-16.22998 18.13598,-22.23729 -0.52326,-5.35622 -1.75814,-6.79053 -6.30032,-7.31789 -4.34796,-0.50481 -9.97072,2.97744 -24.40677,15.1154 -18.76012,15.7737 -22.10905,21.45655 -16.15391,27.41171 4.8852,4.88519 9.93846,2.60319 28.72502,-12.97193 z"
     id="path3453"
     inkscape:connector-curvature="0" /><path
     style="fill:#00cc00"
     d="m 385.96065,290.29153 c 0.01,-19.24026 4.51144,-28.12161 16.21039,-31.98262 20.02207,-6.60787 38.57397,12.273 30.66297,31.20669 -4.80243,11.49384 -14.55965,16.48684 -32.2374,16.49663 l -14.64407,0.008 0.008,-15.72881 z"
     id="path3455"
     inkscape:connector-curvature="0" /><path
     style="fill:#00cc00"
     d="m 280.07721,302.39118 c -24.71259,-12.17905 -11.66841,-50.48842 15.45831,-45.39941 13.7584,2.58109 20.99329,15.0404 20.99329,36.15285 l 0,12.87572 -14.64406,-0.0494 c -9.053,-0.0305 -17.37907,-1.39728 -21.80754,-3.57976 z"
     id="path3457"
     inkscape:connector-curvature="0" /><path
     style="fill:#00cc00"
     d="m 336.57806,609.40518 c -1.48132,-1.48132 -2.69331,-4.93874 -2.69331,-7.68315 0,-4.76695 0.7329,-4.98983 16.40864,-4.98983 l 16.40864,0 -0.67983,7.05085 c -0.67644,7.01575 -0.74472,7.054 -13.71533,7.68315 -8.26936,0.40111 -14.02024,-0.35245 -15.72881,-2.06102 z"
     id="path3459"
     inkscape:connector-curvature="0" /><path
     style="fill:#3366cc"
     d="M 286.55688,692.11032 C 157.00905,664.05996 59.225227,577.69476 19.368074,456.12225 6.0962558,415.64049 3.3240209,393.67502 4.6933931,339.8492 5.7601549,297.91807 6.4083619,292.00004 12.438356,269.13898 29.533264,204.32836 58.29839,154.00124 104.89046,107.38586 155.3429,56.908186 211.97676,26.369631 284.47796,10.547295 303.7634,6.3385314 313.05012,5.6893705 353.41017,5.7287938 c 39.83293,0.038908 49.75301,0.7353398 67.93476,4.7693042 142.14799,31.538206 243.93548,132.547382 275.37215,273.266492 4.03749,18.0729 4.72965,27.83798 4.72991,66.73033 2.6e-4,39.208 -0.6855,48.73498 -4.91904,68.33898 -18.35542,84.99707 -64.17734,157.05632 -132.66153,208.62275 -37.70059,28.38734 -91.59706,52.98295 -139.94778,63.86506 -10.63569,2.39373 -30.46393,3.67963 -66.16949,4.29119 -45.09843,0.77245 -53.31564,0.36816 -71.19227,-3.50258 z m 91.55,-69.35047 c 4.45208,-4.92791 7.84566,-10.95077 7.84566,-13.92425 0,-11.16752 1.4948,-12.1034 19.33195,-12.1034 16.23192,0 16.90353,-0.21174 24.04951,-7.58458 6.58911,-6.79826 7.29841,-8.7101 6.84134,-18.44068 -0.93809,-19.97158 -0.92659,-45.62389 0.0301,-67.27151 0.42392,-9.59195 -0.32668,-11.68815 -6.44588,-18.00159 -3.80915,-3.93001 -6.92571,-8.67037 -6.92571,-10.53412 0,-1.86374 3.59658,-6.69863 7.99241,-10.74419 34.40045,-31.6593 54.22372,-52.5773 62.72752,-66.19155 28.62119,-45.82149 37.07171,-111.94759 20.59219,-161.13571 -15.43945,-46.08367 -44.87804,-80.08058 -88.05788,-101.69293 -30.24912,-15.14026 -64.29397,-20.5387 -99.76093,-15.81893 -47.0966,6.26739 -93.42511,35.74203 -119.47512,76.01121 -19.51132,30.16143 -27.00124,57.09491 -27.00124,97.09554 0,68.13887 21.89463,112.7941 78.6512,160.4132 20.31885,17.04765 22.06254,21.57028 12.51059,32.44935 -6.40421,7.294 -6.83348,8.73764 -5.64718,18.99231 0.70612,6.10404 1.22734,13.29486 1.15824,15.97961 -0.0692,2.68474 -0.12561,10.25084 -0.12561,16.81356 0,6.56271 0.0566,14.12881 0.12561,16.81356 0.069,2.68474 -0.46119,10.00996 -1.1784,16.27828 -1.24411,10.87353 -0.95564,11.74528 6.28213,18.98305 6.12554,6.12553 9.24757,7.58612 16.21541,7.58612 4.99029,0 9.75833,-1.36044 11.30665,-3.22605 4.1763,-5.03214 0.98404,-12.81601 -6.39887,-15.60275 -4.2186,-1.59234 -6.59469,-4.00258 -6.59469,-6.68943 0,-3.77101 2.1616,-4.34336 21.15254,-5.60095 11.6339,-0.77041 32.19977,-1.40579 45.70195,-1.41197 13.50218,-0.007 26.43777,-1.02183 28.74576,-2.25703 5.20086,-2.78342 5.74071,-14.05328 0.76468,-15.96275 -1.88741,-0.72429 -14.82301,-1.42614 -28.74576,-1.55969 -13.92273,-0.13365 -34.58866,-0.86576 -45.92425,-1.62712 -18.88721,-1.26857 -20.66547,-1.77207 -21.27161,-6.02273 -0.65202,-4.5724 -0.0195,-4.65874 44.47458,-6.06438 55.55439,-1.75507 54.89872,-1.63562 54.89872,-10.00237 0,-4.77375 -1.30783,-7.01119 -4.88135,-8.35105 -2.68475,-1.0066 -24.40678,-2.54152 -48.27119,-3.41092 -43.48251,-1.58412 -52.04532,-3.24872 -46.21058,-8.98328 1.99899,-1.96464 15.4614,-3.16233 46.21058,-4.11107 53.80615,-1.66016 53.15254,-1.53898 53.15254,-9.85555 0,-8.48848 -5.83853,-10.74887 -27.80225,-10.76365 -9.16977,-0.007 -26.09716,-0.6354 -37.61638,-1.39826 -20.46136,-1.35508 -20.9705,-1.51927 -22.0915,-7.12424 -1.3126,-6.56297 -13.33682,-19.58836 -34.59122,-37.47137 -20.94045,-17.61885 -35.10764,-34.88182 -45.03526,-54.87627 -25.87797,-52.11873 -24.83372,-116.65367 2.64405,-163.40434 3.96245,-6.74167 14.71978,-19.77106 23.90522,-28.95419 13.33254,-13.32919 20.77086,-18.69332 36.88135,-26.59694 25.91026,-12.71127 41.07357,-16.43436 66.93341,-16.43436 25.28985,0 48.10536,5.35448 71.35857,16.74686 24.19916,11.85584 52.41032,40.54855 64.59125,65.69382 12.76629,26.35362 16.26481,41.87932 16.18448,71.82316 -0.11152,41.53342 -9.42833,71.68879 -31.71387,102.64633 -9.89507,13.74553 -20.25667,24.17898 -45.44948,45.76455 -16.56711,14.19497 -22.88981,25.10777 -22.96428,39.63575 -0.0427,8.34278 0.72914,9.7518 7.54557,13.7736 9.22772,5.44449 9.6176,9.40173 1.34765,13.67827 -11.62448,6.01128 -12.31397,17.10905 -1.34765,21.69106 4.17627,1.74496 7.59322,4.59045 7.59322,6.32331 0,1.73286 -3.41695,5.16668 -7.59322,7.63075 -10.48107,6.18398 -10.44037,13.94037 0.10587,20.16275 4.6904,2.76741 7.4372,5.91803 7.02901,8.06244 -0.75319,3.95679 -23.00959,6.05228 -69.24204,6.5193 -19.43014,0.19634 -25.8402,0.99506 -27.89977,3.47668 -1.77176,2.13484 -2.39939,8.65764 -1.86029,19.33353 1.24207,24.59672 6.78259,29.14916 35.75046,29.37489 l 17.64586,0.13755 7.84567,-8.68421 -9e-5,-3e-5 z M 331.28136,450.94237 c 1.90221,-1.90221 2.60339,-19.13973 2.60339,-64 l 0,-61.39661 16.27118,0 16.27119,0 0,60.40952 c 0,57.27216 0.22113,60.60964 4.25817,64.26311 5.24878,4.75008 10.3073,3.07363 13.13032,-4.35148 1.20253,-3.16292 2.13693,-30.10458 2.13693,-61.61492 l 0,-55.99436 6.77966,-1.35594 c 3.72882,-0.74576 10.41703,-1.35593 14.86271,-1.35593 29.90631,0 51.49811,-25.84561 45.38906,-54.33114 -5.54229,-25.84285 -34.01843,-41.21656 -57.88077,-31.24868 -19.44105,8.12099 -28.55635,23.79923 -28.62844,49.24084 l -0.0476,16.81356 -16.27119,0 -16.27118,0 0,-17.98099 c 0,-21.93199 -5.23306,-34.13736 -18.62331,-43.43632 -29.97241,-20.81458 -71.24211,4.6756 -67.67499,41.79938 2.32567,24.20374 19.71693,37.42381 51.04406,38.80148 l 17.8983,0.78712 0,61.174 c 0,62.90933 0.45382,66.38075 8.67797,66.38075 1.90915,0 4.64271,-1.17152 6.07458,-2.60339 z M 152.57724,296.10266 c 4.86307,-4.86307 4.21229,-11.19477 -1.46278,-14.23197 -2.8626,-1.53203 -13.82748,-2.60741 -26.58565,-2.60741 -28.992584,0 -37.894603,5.20093 -27.867141,16.28115 3.073924,3.39664 7.109201,3.96743 28.048421,3.96743 19.34184,0 25.17108,-0.71313 27.86715,-3.4092 z m 452.06005,0.80581 c 3.77157,-3.77157 3.22605,-14.04938 -0.82829,-15.60517 -4.46529,-1.71351 -49.41711,-1.71351 -53.8824,0 -4.05435,1.55579 -4.59987,11.8336 -0.82829,15.60517 1.72561,1.72562 11.0885,2.60339 27.76949,2.60339 16.68098,0 26.04387,-0.87777 27.76949,-2.60339 z M 166.41987,219.90513 c 0.80192,-8.28398 -2.02341,-10.06753 -30.58916,-19.31003 -14.5016,-4.69201 -19.95958,-5.6135 -22.77966,-3.84595 -5.26716,3.3013 -5.68716,10.16276 -0.88793,14.50601 6.33924,5.73692 37.47974,16.61595 45.99281,16.06772 6.83032,-0.43984 7.66061,-1.18513 8.26394,-7.41775 z m 403.71374,0.85356 c 19.79053,-7.5422 23.32227,-10.82452 21.11401,-19.6229 -1.07275,-4.27419 -2.8175,-5.75952 -6.76547,-5.75952 -6.24024,0 -38.54714,11.46329 -45.91796,16.29283 -4.81719,3.15634 -6.88343,11.55967 -3.63989,14.80321 3.2353,3.23532 18.02516,0.83528 35.20931,-5.71362 z M 201.52238,163.94682 c 5.07233,-6.11178 0.33564,-13.57422 -17.87868,-28.16705 -14.42384,-11.556 -19.15689,-14.21492 -24.40302,-13.70905 -5.19103,0.50055 -6.64085,1.76703 -7.16243,6.2567 -0.52424,4.51251 2.04163,8.12475 12.93533,18.21039 21.41471,19.82625 30.79175,24.29763 36.5088,17.40901 z m 320.39957,-4.62793 c 18.77036,-14.07874 26.74246,-22.88354 26.74246,-29.53575 0,-6.78622 -3.88101,-9.29941 -11.43344,-7.40388 -7.52449,1.88854 -36.08116,26.91357 -37.59514,32.94572 -3.48026,13.86642 6.69299,15.68958 22.28612,3.99391 z"
     id="path3480"
     inkscape:connector-curvature="0" /><path
     style="fill:#3366cc"
     d="m 386.08187,297.88475 c 0.44252,-27.83839 7.58956,-39.59322 24.07301,-39.59322 7.14793,0 10.19236,1.41842 16.42773,7.6538 6.91929,6.91928 7.53862,8.51255 6.45357,16.60221 -0.70167,5.23138 -3.29651,11.04469 -6.24684,13.99502 -4.96712,4.96712 -21.44558,9.47778 -34.62444,9.47778 -5.75539,0 -6.20284,-0.59844 -6.08303,-8.13559 z"
     id="path3482"
     inkscape:connector-curvature="0" /><path
     style="fill:#3366cc"
     d="M 292.66441,304.00381 C 274.60111,301.34543 268.8,295.50124 268.8,279.96218 c 0,-19.49461 22.23986,-28.95811 36.90673,-15.70455 5.20308,4.7017 7.0468,8.72479 8.69963,18.98305 3.46957,21.53378 3.18696,22.82342 -4.92839,22.48979 -3.87797,-0.15943 -11.44407,-0.93643 -16.81356,-1.72666 z"
     id="path3484"
     inkscape:connector-curvature="0" /><path
     style="fill:#3366cc"
     d="m 335.9548,605.22436 c -1.33188,-2.48864 -1.88922,-5.05717 -1.23853,-5.70786 0.65068,-0.65068 8.21097,-1.68591 16.80064,-2.30049 14.15423,-1.01273 15.4828,-0.76621 14.17915,2.63105 -0.79114,2.06167 -1.43843,5.13305 -1.43843,6.82529 0,2.31219 -3.21586,3.0768 -12.94062,3.0768 -10.89737,0 -13.32297,-0.71443 -15.36221,-4.52479 z"
     id="path3486"
     inkscape:connector-curvature="0" /></svg>