<?xml version="1.0" encoding="UTF-8" standalone="no"?>
<!-- Generator: Adobe Illustrator 19.0.0, SVG Export Plug-In . SVG Version: 6.00 Build 0)  -->

<svg
   xmlns:dc="http://purl.org/dc/elements/1.1/"
   xmlns:cc="http://creativecommons.org/ns#"
   xmlns:rdf="http://www.w3.org/1999/02/22-rdf-syntax-ns#"
   xmlns:svg="http://www.w3.org/2000/svg"
   xmlns="http://www.w3.org/2000/svg"
   xmlns:sodipodi="http://sodipodi.sourceforge.net/DTD/sodipodi-0.dtd"
   xmlns:inkscape="http://www.inkscape.org/namespaces/inkscape"
   version="1.1"
   id="Layer_1"
   x="0px"
   y="0px"
   viewBox="0 0 700 700"
   xml:space="preserve"
   inkscape:version="0.91 r13725"
   sodipodi:docname="light-bulb-green.svg"
   width="700"
   height="700"><metadata
     id="metadata59"><rdf:RDF><cc:Work
         rdf:about=""><dc:format>image/svg+xml</dc:format><dc:type
           rdf:resource="http://purl.org/dc/dcmitype/StillImage" /><dc:title></dc:title></cc:Work></rdf:RDF></metadata><defs
     id="defs57" /><sodipodi:namedview
     pagecolor="#ffffff"
     bordercolor="#666666"
     borderopacity="1"
     objecttolerance="10"
     gridtolerance="10"
     guidetolerance="10"
     inkscape:pageopacity="0"
     inkscape:pageshadow="2"
     inkscape:window-width="1855"
     inkscape:window-height="1056"
     id="namedview55"
     showgrid="false"
     inkscape:zoom="0.4609375"
     inkscape:cx="79.864407"
     inkscape:cy="256"
     inkscape:window-x="65"
     inkscape:window-y="24"
     inkscape:window-maximized="1"
     inkscape:current-layer="Layer_1" /><g
     id="g25"
     transform="translate(0,188)" /><g
     id="g27"
     transform="translate(0,188)" /><g
     id="g29"
     transform="translate(0,188)" /><g
     id="g31"
     transform="translate(0,188)" /><g
     id="g33"
     transform="translate(0,188)" /><g
     id="g35"
     transform="translate(0,188)" /><g
     id="g37"
     transform="translate(0,188)" /><g
     id="g39"
     transform="translate(0,188)" /><g
     id="g41"
     transform="translate(0,188)" /><g
     id="g43"
     transform="translate(0,188)" /><g
     id="g45"
     transform="translate(0,188)" /><g
     id="g47"
     transform="translate(0,188)" /><g
     id="g49"
     transform="translate(0,188)" /><g
     id="g51"
     transform="translate(0,188)" /><g
     id="g53"
     transform="translate(0,188)" /><ellipse
     style="fill:#ff0000"
     id="path3387"
     cx="352.88135"
     cy="351.05087"
     rx="352.54236"
     ry="349.28815" /><g
     id="g3"
     transform="translate(94.81356,118.84746)"
     style="fill:#f9f9f9"><g
       id="g5"
       style="fill:#f9f9f9"><g
         id="g7"
         style="fill:#f9f9f9"><path
           d="m 281.6,332.8 c 4.719,0 8.533,-3.823 8.533,-8.533 l 0,-119.467 25.6,0 c 23.526,0 42.667,-19.14 42.667,-42.667 0,-23.526 -19.14,-42.667 -42.667,-42.667 -23.526,0 -42.667,19.14 -42.667,42.667 l 0,25.6 -34.133,0 0,-25.6 c 0,-23.526 -19.14,-42.667 -42.667,-42.667 -23.526,0 -42.667,19.14 -42.667,42.667 0,23.526 19.14,42.667 42.667,42.667 l 25.6,0 0,119.467 c 0,4.71 3.823,8.533 8.533,8.533 4.71,0 8.533,-3.823 8.533,-8.533 l 0,-119.467 34.133,0 0,119.467 c 0.002,4.71 3.816,8.533 8.535,8.533 z m 8.533,-170.667 c 0,-14.114 11.486,-25.6 25.6,-25.6 14.114,0 25.6,11.486 25.6,25.6 0,14.114 -11.486,25.6 -25.6,25.6 l -25.6,0 0,-25.6 z m -68.266,25.6 -25.6,0 c -14.114,0 -25.6,-11.486 -25.6,-25.6 0,-14.114 11.486,-25.6 25.6,-25.6 14.114,0 25.6,11.486 25.6,25.6 l 0,25.6 z"
           id="path9"
           inkscape:connector-curvature="0"
           style="fill:#f9f9f9" /><path
           d="m 60.928,18.15 32.666,27.418 c 1.604,1.348 3.55,1.997 5.487,1.997 2.432,0 4.855,-1.033 6.536,-3.046 3.029,-3.61 2.56,-8.994 -1.05,-12.023 L 71.902,5.077 c -3.61,-3.021 -8.986,-2.551 -12.023,1.05 -3.03,3.618 -2.561,8.994 1.049,12.023 z"
           id="path11"
           inkscape:connector-curvature="0"
           style="fill:#f9f9f9" /><path
           d="M 66.449,92.612 26.368,78.029 c -4.429,-1.604 -9.318,0.674 -10.94,5.103 -1.604,4.429 0.674,9.327 5.103,10.94 l 40.081,14.583 c 0.964,0.35 1.946,0.521 2.918,0.521 3.482,0 6.758,-2.159 8.021,-5.623 1.614,-4.43 -0.673,-9.328 -5.102,-10.941 z"
           id="path13"
           inkscape:connector-curvature="0"
           style="fill:#f9f9f9" /><path
           d="m 412.894,47.565 c 1.928,0 3.874,-0.657 5.47,-1.997 l 32.683,-27.435 c 3.61,-3.029 4.087,-8.405 1.05,-12.023 -3.004,-3.593 -8.388,-4.079 -12.015,-1.05 l -32.683,27.435 c -3.61,3.029 -4.079,8.405 -1.05,12.023 1.681,2.006 4.104,3.047 6.545,3.047 z"
           id="path15"
           inkscape:connector-curvature="0"
           style="fill:#f9f9f9" /><path
           d="m 51.183,162.15 -42.65,0 c -4.71,0 -8.533,3.823 -8.533,8.533 0,4.71 3.823,8.533 8.533,8.533 l 42.65,0 c 4.71,0 8.533,-3.823 8.533,-8.533 0,-4.71 -3.823,-8.533 -8.533,-8.533 z"
           id="path17"
           inkscape:connector-curvature="0"
           style="fill:#f9f9f9" /><path
           d="m 496.555,83.106 c -1.604,-4.42 -6.511,-6.716 -10.931,-5.094 l -40.09,14.592 c -4.437,1.613 -6.716,6.511 -5.103,10.94 1.263,3.465 4.531,5.615 8.021,5.615 0.964,0 1.954,-0.162 2.91,-0.521 L 491.46,94.046 c 4.429,-1.613 6.716,-6.511 5.095,-10.94 z"
           id="path19"
           inkscape:connector-curvature="0"
           style="fill:#f9f9f9" /><path
           d="M 256,0 C 161.894,0 85.333,76.561 85.333,170.667 c 0,72.021 28.245,125.747 88.909,169.079 0.29,0.205 0.717,0.461 1.033,0.631 0.444,0.239 9.626,5.367 11.93,19.755 -9.634,3.678 -16.538,12.954 -16.538,23.868 0,6.554 2.475,12.536 6.536,17.067 -4.062,4.531 -6.536,10.513 -6.536,17.067 0,6.554 2.475,12.535 6.536,17.067 -4.062,4.531 -6.536,10.513 -6.536,17.067 0,14.114 11.486,25.6 25.6,25.6 4.71,0 8.533,-3.823 8.533,-8.533 0,-4.71 -3.823,-8.533 -8.533,-8.533 -4.702,0 -8.533,-3.831 -8.533,-8.533 0,-4.702 3.831,-8.533 8.533,-8.533 l 85.333,0 c 4.719,0 8.533,-3.823 8.533,-8.533 0,-4.71 -3.814,-8.533 -8.533,-8.533 l -85.333,0 c -4.702,0 -8.533,-3.831 -8.533,-8.533 0,-4.702 3.831,-8.533 8.533,-8.533 l 85.333,0 c 4.719,0 8.533,-3.823 8.533,-8.533 0,-4.71 -3.814,-8.533 -8.533,-8.533 l -85.333,0 c -4.702,0 -8.533,-3.831 -8.533,-8.533 0,-4.702 3.831,-8.533 8.533,-8.533 l 85.333,0 c 4.719,0 8.533,-3.823 8.533,-8.533 0,-4.71 -3.814,-8.533 -8.533,-8.533 l -77.38,0 c -3.021,-21.487 -16.947,-30.797 -20.437,-32.811 -56.286,-40.337 -81.382,-88.132 -81.382,-154.923 0,-84.693 68.907,-153.6 153.6,-153.6 84.693,0 153.6,68.907 153.6,153.6 0,66.79 -25.097,114.586 -81.382,154.923 -3.925,2.261 -21.018,13.739 -21.018,41.344 0,4.71 3.814,8.533 8.533,8.533 4.71,0 8.533,3.831 8.533,8.533 0,4.702 -3.823,8.533 -8.533,8.533 -4.719,0 -8.533,3.823 -8.533,8.533 0,4.71 3.814,8.533 8.533,8.533 4.71,0 8.533,3.831 8.533,8.533 0,4.702 -3.823,8.533 -8.533,8.533 -4.719,0 -8.533,3.823 -8.533,8.533 0,4.71 3.814,8.533 8.533,8.533 4.71,0 8.533,3.831 8.533,8.533 0,4.864 -3.669,8.533 -8.533,8.533 l -85.334,0 c -4.71,0 -8.533,3.823 -8.533,8.533 l 0,17.065 c 0,14.114 11.486,25.6 25.6,25.6 l 17.067,0 c 14.114,0 25.6,-11.486 25.6,-25.6 l 0,-8.533 25.6,0 c 14.362,0 25.6,-11.247 25.6,-25.6 0,-6.554 -2.475,-12.535 -6.537,-17.067 4.062,-4.531 6.537,-10.513 6.537,-17.067 0,-6.554 -2.475,-12.535 -6.537,-17.067 4.062,-4.531 6.537,-10.513 6.537,-17.067 0,-10.914 -6.904,-20.19 -16.546,-23.868 2.304,-14.387 11.477,-19.507 11.827,-19.703 0.401,-0.196 0.785,-0.427 1.143,-0.683 60.655,-43.332 88.909,-97.058 88.909,-169.079 C 426.667,76.561 350.106,0 256,0 Z m 17.067,486.4 c 0,4.702 -3.823,8.533 -8.533,8.533 l -17.067,0 c -4.702,0 -8.533,-3.831 -8.533,-8.533 l 0,-8.533 34.133,0 0,8.533 z"
           id="path21"
           inkscape:connector-curvature="0"
           style="fill:#f9f9f9" /><path
           d="m 503.467,162.133 -42.667,0 c -4.719,0 -8.533,3.823 -8.533,8.533 0,4.71 3.814,8.533 8.533,8.533 l 42.667,0 c 4.719,0 8.533,-3.823 8.533,-8.533 0,-4.71 -3.814,-8.533 -8.533,-8.533 z"
           id="path23"
           inkscape:connector-curvature="0"
           style="fill:#f9f9f9" /></g></g></g><path
     style="fill:#00cc00"
     d="M 311.10508,697.33981 C 155.26059,674.00828 41.427692,569.67977 8.0329522,419.57246 3.9667165,401.29497 3.2771886,391.51349 3.2399189,351.57966 3.1908337,298.98583 6.0422153,280.37806 20.576141,238.44554 60.425826,123.47333 159.26684,36.144948 278.14116,10.880725 340.72428,-2.4199938 403.57109,0.98567044 464.05424,20.955343 633.67658,76.959412 734.6435,252.70797 696.24105,425.11245 666.19418,560.00527 561.49684,662.48862 423.21814,692.36189 c -16.23411,3.50716 -30.58673,4.69619 -63.2995,5.24395 -23.26779,0.38959 -45.23389,0.26988 -48.81356,-0.26603 z m 65.33038,-73.02111 c 6.22288,-5.70286 8.00532,-9.1678 8.92824,-17.35593 l 1.15313,-10.23057 16.90734,0 c 14.9823,0 17.6601,-0.6334 23.51879,-5.56318 8.92427,-7.50926 11.78262,-18.36173 7.84579,-29.78846 -2.21394,-6.42602 -2.41063,-9.94205 -0.73168,-13.07922 2.87881,-5.37906 2.79053,-20.43203 -0.14058,-23.96372 -1.5096,-1.81897 -1.24265,-5.43736 0.84913,-11.50877 3.99035,-11.58209 1.10874,-22.34018 -8.04766,-30.04478 -6.83099,-5.74792 -6.83349,-5.75792 -3.13782,-12.61404 2.03422,-3.77385 7.32034,-9.30223 11.74691,-12.28528 13.23405,-8.91839 41.62501,-37.03509 51.83028,-51.32957 20.91995,-29.30245 32.44724,-64.54298 34.65945,-105.95857 4.3584,-81.5954 -45.74269,-152.6796 -123.93203,-175.83672 -16.20105,-4.79823 -23.95792,-5.80631 -45.55933,-5.92089 -30.21125,-0.16024 -47.47941,3.35864 -71.93888,14.65961 -63.32243,29.25676 -100.47432,87.51903 -100.52049,157.638 -0.0439,66.62868 24.23387,116.65757 77.33789,159.36935 23.05377,18.54225 26.34576,24.55871 17.51652,32.01332 -10.38907,8.7716 -13.0058,20.16837 -7.20588,31.38417 2.59577,5.01966 2.60729,6.71104 0.0768,11.28209 -3.77127,6.81255 -3.81143,16.88789 -0.0942,23.59559 2.40393,4.33766 2.39338,6.13907 -0.0636,10.84745 -8.69076,16.65499 3.91724,37.10362 22.87697,37.10362 12.04235,0 13.87765,-15.98548 2.0375,-17.74678 -5.70167,-0.84817 -9.53153,-6.44888 -7.69053,-11.24647 1.2026,-3.13327 6.81728,-3.54912 47.91936,-3.54912 39.43205,0 47.07893,-0.52174 49.96639,-3.4092 1.87507,-1.87505 3.4092,-5.09675 3.4092,-7.15933 0,-8.29824 -3.74907,-8.95689 -50.98305,-8.95689 -32.71111,0 -46.51932,-0.74305 -48.37966,-2.60339 -3.67536,-3.67536 -3.23183,-9.7082 0.82829,-11.26619 1.88741,-0.72429 23.65826,-1.31686 48.37966,-1.31686 45.93992,0 50.199,-0.72819 50.12155,-8.5695 -0.0933,-9.43307 -1.95647,-9.82215 -52.46757,-10.95593 -44.30514,-0.99447 -48.38943,-1.40939 -49.0754,-4.98558 -1.81306,-9.45234 1.88703,-10.20086 50.42487,-10.20086 47.44409,0 51.15131,-0.65147 51.15131,-8.98885 0,-8.89743 -7.50013,-10.53657 -48.21154,-10.53657 -28.26659,0 -38.56812,-0.68626 -38.56812,-2.56929 0,-8.27448 -10.03008,-21.88689 -23.46884,-31.85087 -52.48445,-38.91391 -76.4342,-85.35769 -76.78448,-148.90188 -0.37856,-68.67469 40.35147,-125.78626 105.15121,-147.44282 37.00773,-12.36827 76.56943,-9.26269 114.31851,8.97397 17.19964,8.30917 23.52306,12.92429 39.23231,28.63355 15.51162,15.51162 20.47455,22.26626 28.89919,39.33238 11.75523,23.81308 16.49349,43.57248 16.54664,69.00261 0.13039,62.42814 -22.09842,107.09919 -73.45141,147.60754 -21.38422,16.86834 -27.09037,25.73126 -27.27496,42.36407 -0.0885,7.97749 0.81469,11.03979 3.67929,12.47458 2.08813,1.04587 5.50508,2.74018 7.59322,3.76515 6.23141,3.05868 4.55292,9.73581 -3.31804,13.19945 -11.24109,4.94664 -11.59917,19.64885 -0.47857,19.64885 2.09423,0 5.09097,1.54624 6.65941,3.43608 3.58996,4.32566 0.29444,10.37082 -6.18106,11.33822 -11.41771,1.70576 -11.74747,15.68403 -0.46282,19.61789 8.29364,2.89117 10.73358,8.62613 5.34604,12.5656 -3.07588,2.24914 -14.53364,2.94051 -48.73216,2.94051 -31.88239,0 -45.45772,0.74696 -47.31416,2.60339 -3.74862,3.74862 -3.28242,28.84135 0.67812,36.5002 4.97059,9.61206 12.84035,12.77852 32.0046,12.87734 16.07025,0.0829 17.20318,-0.24101 24.62054,-7.0385 z M 329.68839,451.29995 c 3.99793,-2.13964 4.19636,-5.16584 4.19636,-64 l 0,-61.75419 16.27118,0 16.27119,0 0,60.62276 c 0,60.03061 0.0466,60.65544 4.78073,63.97129 4.07637,2.85521 5.43486,2.91441 9.22034,0.40192 4.27314,-2.83613 4.46119,-5.2234 5.01526,-63.66757 l 0.57563,-60.72094 18.34262,-1.14436 c 14.56707,-0.9088 20.35358,-2.32286 28.11246,-6.86985 20.93486,-12.26867 27.45123,-39.72586 14.33611,-60.40628 -15.0047,-23.65993 -45.83014,-27.02286 -66.36776,-7.24044 -10.74024,10.34531 -13.98589,19.8213 -14.00329,40.88398 l -0.0121,14.64407 -16.27119,0 -16.27118,0 0,-17.75573 c 0,-22.64511 -5.10371,-34.3104 -18.81585,-43.00637 -12.91056,-8.18764 -22.32446,-9.62347 -36.35439,-5.54485 -26.67442,7.75446 -39.4854,39.96262 -25.22346,63.41445 9.11425,14.98722 25.55355,22.25855 50.56319,22.36488 l 12.47457,0.053 0,61.72271 c 0,56.4948 0.32157,61.91 3.79661,63.93402 4.76334,2.77439 4.36873,2.77029 9.36297,0.0974 l 0,4e-5 z M 152.019,295.92138 c 4.86518,-4.40292 5.02799,-8.056 0.55824,-12.52574 -4.96218,-4.96216 -51.13468,-4.96216 -56.096852,0 -4.23524,4.23524 -4.238221,5.28923 -0.03194,11.29451 3.145501,4.49085 5.031947,4.82171 27.490187,4.82171 19.39284,0 24.88956,-0.70282 28.08037,-3.59048 z m 451.02532,1.34467 c 4.6907,-2.51038 5.57858,-10.6906 1.59297,-14.67622 -1.72562,-1.72561 -11.08851,-2.60339 -27.76949,-2.60339 -16.68099,0 -26.04388,0.87778 -27.76949,2.60339 -3.83643,3.83642 -3.16497,12.04035 1.19322,14.57877 4.99015,2.90649 47.3578,2.98476 52.75279,0.0974 l 0,4e-5 z M 165.74915,219.52312 c 0,-7.30117 -0.0299,-7.32186 -22.77966,-15.75318 -12.81086,-4.74784 -24.85255,-7.95482 -27.51642,-7.32824 -6.36437,1.49698 -8.66629,9.24097 -4.10327,13.80399 5.11376,5.11375 40.22691,17.62527 47.89088,17.06446 5.84981,-0.42805 6.50847,-1.21611 6.50847,-7.78703 z m 400.17042,1.79506 c 9.94711,-3.63023 19.89668,-7.56967 22.11017,-8.75428 4.95415,-2.65139 5.25195,-11.29866 0.52424,-15.22231 -2.97667,-2.47042 -6.62749,-1.81986 -24.40678,4.34919 -11.49859,3.98978 -23.10313,8.61692 -25.78788,10.28254 -8.32735,5.16629 -5.01495,15.94532 4.90002,15.94532 2.516,0 12.71313,-2.9702 22.66023,-6.60046 z M 201.95029,161.72769 c 2.94523,-6.46409 0.28379,-9.8437 -22.34095,-28.3695 -14.38723,-11.78068 -20.5114,-13.98833 -25.35849,-9.14124 -5.39241,5.39241 -2.12775,10.68737 16.37966,26.56623 20.59839,17.67286 27.20263,19.98067 31.31978,10.94451 z m 328.14422,-10.13013 c 16.94067,-14.04477 18.72285,-16.22998 18.13598,-22.23729 -0.52326,-5.35622 -1.75814,-6.79053 -6.30032,-7.31789 -4.34796,-0.50481 -9.97072,2.97744 -24.40677,15.1154 -18.76012,15.7737 -22.10905,21.45655 -16.15391,27.41171 4.8852,4.88519 9.93846,2.60319 28.72502,-12.97193 z"
     id="path3453"
     inkscape:connector-curvature="0" /><path
     style="fill:#00cc00"
     d="m 385.96065,290.29153 c 0.01,-19.24026 4.51144,-28.12161 16.21039,-31.98262 20.02207,-6.60787 38.57397,12.273 30.66297,31.20669 -4.80243,11.49384 -14.55965,16.48684 -32.2374,16.49663 l -14.64407,0.008 0.008,-15.72881 z"
     id="path3455"
     inkscape:connector-curvature="0" /><path
     style="fill:#00cc00"
     d="m 280.07721,302.39118 c -24.71259,-12.17905 -11.66841,-50.48842 15.45831,-45.39941 13.7584,2.58109 20.99329,15.0404 20.99329,36.15285 l 0,12.87572 -14.64406,-0.0494 c -9.053,-0.0305 -17.37907,-1.39728 -21.80754,-3.57976 z"
     id="path3457"
     inkscape:connector-curvature="0" /><path
     style="fill:#00cc00"
     d="m 336.57806,609.40518 c -1.48132,-1.48132 -2.69331,-4.93874 -2.69331,-7.68315 0,-4.76695 0.7329,-4.98983 16.40864,-4.98983 l 16.40864,0 -0.67983,7.05085 c -0.67644,7.01575 -0.74472,7.054 -13.71533,7.68315 -8.26936,0.40111 -14.02024,-0.35245 -15.72881,-2.06102 z"
     id="path3459"
     inkscape:connector-curvature="0" /><path
     style="fill:#00cc00"
     d="M 286.80678,692.05215 C 156.99209,664.12442 59.091478,577.55342 19.033427,455.26704 7.1338459,418.94083 4.7728798,402.11992 4.7728798,353.66647 c 0,-53.55235 2.1389412,-69.50165 14.1880192,-105.79482 19.524933,-58.81127 43.091877,-97.07649 86.536571,-140.50784 51.42572,-51.409918 109.29308,-82.602258 179.73044,-96.880404 20.78733,-4.2137352 30.87896,-4.9231207 68.83311,-4.8385873 47.75447,0.106361 66.47543,2.7835635 106.89831,15.2870713 27.43345,8.485651 75.7192,33.233699 99.20338,50.845023 C 674.30727,157.37655 725.66721,295.79646 693.53869,431.23779 666.4551,545.41171 581.65296,638.58627 468.86094,678.09772 427.23078,692.68094 414.96148,694.62543 358.4,695.60402 c -45.29022,0.78362 -53.28441,0.387 -71.59322,-3.55187 z m 90.27953,-67.73345 c 6.22288,-5.70286 8.00531,-9.1678 8.92823,-17.35593 l 1.15313,-10.23057 17.29074,0 c 16.61581,0 17.56605,-0.27531 24.3435,-7.05275 l 7.05275,-7.05276 0.0336,-45.32957 0.0336,-45.32958 -7.09116,-7.84906 c -6.57028,-7.27251 -6.87622,-8.25935 -4.1649,-13.43406 1.60944,-3.07174 8.35545,-9.77356 14.99114,-14.89295 16.99491,-13.11148 46.48001,-44.85808 55.10539,-59.33195 8.71546,-14.62502 16.31944,-32.96929 20.80547,-50.19234 23.23725,-89.21326 -12.23505,-173.29513 -88.82888,-210.55624 -28.89034,-14.05447 -42.65591,-17.15918 -75.9322,-17.12589 -33.90718,0.0339 -48.31312,3.2894 -76.17393,17.21391 -45.98708,22.98382 -76.8195,60.81031 -90.11784,110.56036 -6.93468,25.94311 -6.50435,70.36039 0.958,98.881 10.41452,39.80362 25.86688,63.59192 65.45244,100.76145 14.96185,14.04867 27.20336,26.72852 27.20336,28.17742 0,1.44889 -2.95088,6.34754 -6.5575,10.88588 -8.4078,10.57985 -9.5098,15.38076 -5.97057,26.01131 2.35513,7.07409 2.3724,10.12524 0.0952,16.84476 -2.13116,6.28894 -2.21968,10.43423 -0.37884,17.74481 1.79339,7.1222 1.75421,11.50161 -0.15468,17.28564 -5.2794,15.99673 7.30485,33.78061 23.90387,33.78061 6.10913,0 9.05233,-1.15317 10.67322,-4.18182 3.12253,-5.83448 0.93722,-10.07269 -7.87432,-15.27162 -4.16401,-2.45682 -7.17301,-5.67469 -6.68668,-7.15081 1.10365,-3.34985 22.86035,-5.27673 63.84608,-5.65457 32.55845,-0.30012 37.57876,-1.79768 37.57876,-11.20963 0,-6.37288 -6.83466,-8.59858 -26.43365,-8.60815 -9.92252,-0.004 -30.44083,-0.64122 -45.59625,-1.41418 -21.70389,-1.10694 -27.82323,-2.10352 -28.8169,-4.69296 -0.69384,-1.80816 -0.49733,-4.02599 0.4367,-4.9285 0.93403,-0.90251 22.19993,-2.32806 47.25756,-3.16789 25.05762,-0.83983 47.3263,-2.4445 49.48595,-3.56593 5.9784,-3.10441 4.0164,-13.01237 -2.9421,-14.85729 -3.03815,-0.80548 -24.02798,-2.14846 -46.64406,-2.98435 -44.40385,-1.64115 -48.71335,-2.22496 -48.71335,-6.59927 0,-4.65371 4.04935,-5.19818 50.30918,-6.76454 24.23502,-0.82058 45.77217,-2.3727 47.86031,-3.44912 2.08813,-1.07641 3.79661,-4.20673 3.79661,-6.95628 0,-7.12246 -8.04255,-10.03259 -27.76309,-10.04583 -9.19131,-0.007 -26.08378,-0.63195 -37.5388,-1.3906 l -20.82732,-1.37936 -2.62105,-7.24842 c -1.59232,-4.40347 -9.14874,-13.0114 -19.25237,-21.93144 -58.01452,-51.21844 -74.77424,-81.4569 -77.90339,-140.55604 -2.55179,-48.19475 11.22002,-86.81497 42.39001,-118.87413 14.91541,-15.34089 37.10913,-29.41945 58.90584,-37.36686 21.75262,-7.93134 56.75162,-9.80261 81.27928,-4.34573 43.58745,9.69729 82.78157,40.37291 101.88451,79.74077 14.12983,29.11922 17.15601,44.29464 15.69759,78.71896 -2.45358,57.91414 -18.59121,89.51834 -68.16219,133.48999 -25.62872,22.73379 -30.89416,30.59104 -30.89922,46.10861 -0.002,9.56262 0.59338,10.73033 7.58986,14.85835 4.17627,2.46406 7.59322,5.31026 7.59322,6.32489 0,1.01465 -3.41695,4.45104 -7.59322,7.63644 -5.56655,4.2458 -7.59322,7.45229 -7.59322,12.01349 0,5.06006 1.41787,6.81429 7.59322,9.39451 4.17627,1.74496 7.59322,4.67378 7.59322,6.50847 0,1.83472 -3.41695,4.76353 -7.59322,6.50848 -6.35127,2.65374 -7.59322,4.26726 -7.59322,9.865 0,5.34871 1.5245,7.59181 7.59322,11.17245 8.06604,4.75908 9.75035,9.268 4.25047,11.3785 -1.83852,0.70552 -23.88838,1.94298 -48.99968,2.7499 l -45.65693,1.46716 -2.1796,5.61781 c -2.50062,6.44524 -0.82226,25.54945 2.97719,33.88835 4.02432,8.83243 11.67002,11.68161 31.60652,11.77819 17.2954,0.0837 18.2054,-0.16531 25.70529,-7.0385 z M 332.28978,449.3494 c 1.39229,-2.60152 2.24581,-26.92465 2.24581,-64 l 0,-59.80364 15.00765,0 15.00768,0 0.72114,60.92275 c 0.67885,57.34947 0.96816,61.10325 4.93242,64 5.218,3.81288 5.88564,3.81278 11.1029,-0.002 3.9581,-2.89391 4.25752,-6.67277 4.98074,-62.85957 l 0.76949,-59.78053 6.82373,-1.02448 c 3.75307,-0.56344 11.88239,-1.51088 18.0652,-2.1054 24.96072,-2.40013 40.02304,-17.35913 41.45102,-41.16663 0.98456,-16.41456 -5.25359,-29.74481 -18.18149,-38.8519 -15.2779,-10.76255 -32.1493,-10.57625 -48.9322,0.54027 -13.90905,9.21298 -19.13175,19.87677 -20.71372,42.29358 l -1.30615,18.50824 -14.8642,0 -14.86421,0 -0.0952,-16.81356 c -0.1562,-27.57741 -5.91501,-38.57714 -24.85393,-47.47275 -13.77669,-6.47088 -23.15611,-6.43491 -37.28408,0.14297 -15.87823,7.39283 -23.1301,18.81847 -24.03597,37.86965 -0.56251,11.83015 0.19373,15.84982 4.31822,22.95528 8.99272,15.49199 24.59095,22.8099 48.66601,22.83171 l 13.35912,0.013 0.74258,61.91098 c 0.62505,52.11131 1.25769,62.2364 3.99683,63.96678 5.2196,3.29737 10.5206,2.44773 12.94063,-2.07412 l 2e-5,-8.9e-4 z M 153.24235,295.32835 c 4.75787,-5.25738 2.7265,-12.80209 -3.80051,-14.1155 -22.13223,-4.45361 -46.42425,-3.09402 -53.975951,3.02098 -4.369098,3.53787 -4.392704,3.85165 -0.712344,9.46859 3.769568,5.75308 4.053383,5.80944 29.254635,5.80944 22.37766,0 25.90495,-0.50477 29.23417,-4.18351 z m 450.45281,1.9377 c 4.6907,-2.51038 5.57859,-10.6906 1.59297,-14.67622 -1.74184,-1.74184 -11.40903,-2.60339 -29.21181,-2.60339 -24.08656,0 -26.82125,0.39771 -28.85424,4.19636 -3.05115,5.70116 -2.83439,7.92207 1.16339,11.91986 2.68583,2.68583 8.47022,3.4092 27.26127,3.4092 13.11863,0 25.74043,-1.01061 28.04842,-2.24581 z M 166.6158,222.40751 c 2.14023,-8.5274 -3.66486,-12.87719 -27.68422,-20.74399 -23.70008,-7.76223 -28.37595,-7.28413 -29.61287,3.02787 -0.77602,6.4696 4.26825,9.73394 27.73377,17.94751 19.7555,6.91498 27.78547,6.85213 29.56332,-0.23139 z m 401.50964,-1.22279 c 10.53574,-3.70365 20.37625,-7.72828 21.86778,-8.94361 3.72228,-3.03299 3.40994,-11.41522 -0.54775,-14.69981 -4.03335,-3.34739 -9.93476,-2.21319 -34.20564,6.57401 -20.26138,7.33559 -25.17671,11.86752 -21.11102,19.46435 3.2732,6.11601 11.4178,5.54225 33.99663,-2.39494 z M 202.19661,162.8339 c 2.89525,-5.40983 0.85848,-9.38964 -10.13334,-19.80034 -20.41429,-19.335 -35.06655,-25.86008 -39.49378,-17.58773 -2.82315,5.27509 0.70307,11.0384 13.83051,22.60482 22.5665,19.88306 31.1665,23.43468 35.79661,14.78325 z m 324.93347,-7.97761 c 18.76434,-14.37234 23.21197,-20.17835 21.29824,-27.8032 -2.63749,-10.50863 -17.2534,-4.50089 -38.87802,15.98047 -10.99184,10.4107 -13.0286,14.39051 -10.13335,19.80034 3.77804,7.05933 10.67207,5.07479 27.71313,-7.97761 z"
     id="path3363"
     inkscape:connector-curvature="0" /><path
     style="fill:#00cc00"
     d="m 386.63051,293.2333 c 0,-23.09444 8.19868,-34.94177 24.18068,-34.94177 9.79541,0 20.44406,8.162 22.42691,17.18984 1.90843,8.68902 -3.69684,20.87543 -11.44476,24.88204 -3.51962,1.82006 -12.87111,3.97227 -20.78107,4.78267 l -14.38176,1.47345 0,-13.38623 z"
     id="path3365"
     inkscape:connector-curvature="0" /><path
     style="fill:#00cc00"
     d="m 290.38148,303.7399 c -17.53925,-2.94162 -25.74636,-14.50323 -20.84262,-29.3617 3.23198,-9.793 11.62158,-16.08667 21.44387,-16.08667 15.77879,0 24.05456,11.91835 24.05456,34.64218 l 0,13.08663 -7.05085,-0.25517 c -3.87797,-0.14035 -11.8002,-1.05172 -17.60496,-2.02527 z"
     id="path3367"
     inkscape:connector-curvature="0" /><path
     style="fill:#00cc00"
     d="m 335.62696,605.34559 c -0.80323,-2.53077 -0.93783,-5.12399 -0.2991,-5.76271 0.63872,-0.63873 7.64011,-1.68138 15.55864,-2.317 l 14.39732,-1.15568 -0.71649,6.2771 c -0.69461,6.08546 -1.12504,6.29669 -14.09821,6.91839 -12.02085,0.57607 -13.53026,0.17334 -14.84216,-3.9601 z"
     id="path3369"
     inkscape:connector-curvature="0" /></svg>