<?xml version="1.0" encoding="UTF-8" standalone="no"?>
<!-- Generator: Adobe Illustrator 19.0.0, SVG Export Plug-In . SVG Version: 6.00 Build 0)  -->

<svg
   xmlns:dc="http://purl.org/dc/elements/1.1/"
   xmlns:cc="http://creativecommons.org/ns#"
   xmlns:rdf="http://www.w3.org/1999/02/22-rdf-syntax-ns#"
   xmlns:svg="http://www.w3.org/2000/svg"
   xmlns="http://www.w3.org/2000/svg"
   xmlns:sodipodi="http://sodipodi.sourceforge.net/DTD/sodipodi-0.dtd"
   xmlns:inkscape="http://www.inkscape.org/namespaces/inkscape"
   version="1.1"
   id="Layer_1"
   x="0px"
   y="0px"
   viewBox="0 0 700 700"
   xml:space="preserve"
   inkscape:version="0.91 r13725"
   sodipodi:docname="tap-red.svg"
   width="700"
   height="700"><metadata
     id="metadata53"><rdf:RDF><cc:Work
         rdf:about=""><dc:format>image/svg+xml</dc:format><dc:type
           rdf:resource="http://purl.org/dc/dcmitype/StillImage" /><dc:title></dc:title></cc:Work></rdf:RDF></metadata><defs
     id="defs51" /><sodipodi:namedview
     pagecolor="#ffffff"
     bordercolor="#666666"
     borderopacity="1"
     objecttolerance="10"
     gridtolerance="10"
     guidetolerance="10"
     inkscape:pageopacity="0"
     inkscape:pageshadow="2"
     inkscape:window-width="1855"
     inkscape:window-height="1056"
     id="namedview49"
     showgrid="false"
     inkscape:snap-nodes="false"
     inkscape:snap-global="true"
     inkscape:zoom="0.47011952"
     inkscape:cx="105.6483"
     inkscape:cy="251"
     inkscape:window-x="65"
     inkscape:window-y="24"
     inkscape:window-maximized="1"
     inkscape:current-layer="Layer_1" /><g
     id="g19"
     transform="translate(0,198)" /><g
     id="g21"
     transform="translate(0,198)" /><g
     id="g23"
     transform="translate(0,198)" /><g
     id="g25"
     transform="translate(0,198)" /><g
     id="g27"
     transform="translate(0,198)" /><g
     id="g29"
     transform="translate(0,198)" /><g
     id="g31"
     transform="translate(0,198)" /><g
     id="g33"
     transform="translate(0,198)" /><g
     id="g35"
     transform="translate(0,198)" /><g
     id="g37"
     transform="translate(0,198)" /><g
     id="g39"
     transform="translate(0,198)" /><g
     id="g41"
     transform="translate(0,198)" /><g
     id="g43"
     transform="translate(0,198)" /><g
     id="g45"
     transform="translate(0,198)" /><g
     id="g47"
     transform="translate(0,198)" /><path
     style="fill:#04c8fc"
     d="M 311.6644,701.78014 C 259.95995,695.17964 208.8486,677.61034 168.48283,652.56194 85.135193,600.84194 30.179303,522.57999 8.159273,424.24723 3.7702527,404.64764 3.2409327,396.90227 3.3121627,353.32118 3.3813627,310.96827 4.0236527,301.49836 8.094143,282.81196 58.852073,49.797816 313.46824,-66.808894 519.58415,48.564576 c 41.3786,23.161677 84.7065,62.247424 112.7009,101.666564 63.5173,89.43949 81.5143,207.49094 47.4741,311.40671 -17.9133,54.68445 -44.8596,98.36568 -86.1225,139.60879 -55.7996,55.7728 -118.732,87.4475 -196.09694,98.6979 -20.41951,2.9694 -68.87942,4.0053 -85.87531,1.8356 z m -99.40945,-112.4988 c 18.6084,-9.273 26.31487,-27.1831 20.47433,-47.58313 -3.73235,-13.03643 -14.89092,-36.08204 -25.55253,-52.77322 -12.66449,-19.82676 -20.48928,-14.47732 -41.46838,28.35011 -12.81932,26.16979 -14.88801,38.52404 -8.76759,52.36028 2.34091,5.292 7.65792,12.21646 11.81558,15.38766 14.3516,10.9465 27.4951,12.2332 43.49859,4.2583 z m 46.35671,-152.8263 c 3.82334,-2.79129 4.20773,-6.64518 5.19257,-52.06057 1.39564,-64.35995 -4.2606,-58.51816 57.48687,-59.37275 l 46.74194,-0.6469 0,7.40809 c 0,13.97545 0.5096,14.09335 60.91471,14.09335 33.3139,0 55.8163,-0.84927 58.3438,-2.20195 3.0057,-1.60861 4.1144,-4.47452 4.1144,-10.63559 l 0,-8.43364 16.865,0 c 12.4957,0 17.731,-0.866 20.2076,-3.34262 5.0206,-5.02057 5.0206,-115.9213 0,-120.94189 -2.4766,-2.47662 -7.7119,-3.34261 -20.2076,-3.34261 l -16.865,0 0,-8.43364 c 0,-6.16107 -1.1087,-9.02698 -4.1144,-10.63559 -2.5275,-1.35269 -25.0299,-2.20196 -58.3438,-2.20196 -60.24199,0 -60.91471,0.1526 -60.91471,13.81795 l 0,7.13272 -66.47246,0.80333 c -61.40581,0.7421 -67.53801,1.15725 -80.45215,5.44666 -35.39195,11.75537 -65.5912,41.5097 -78.7785,77.61784 -4.58222,12.54657 -4.87657,16.85622 -5.64648,82.67197 l -0.81226,69.43539 4.88049,3.41843 c 4.17402,2.92359 12.75881,3.41842 59.30573,3.41842 43.60328,0 55.24626,-0.5994 58.55425,-3.01444 z M 438.22795,154.48275 c 2.3777,-1.50145 3.3785,-7.18386 3.9278,-22.30217 l 0.7371,-20.28737 30.486,0 c 24.8783,0 31.1008,-0.61484 33.8285,-3.34261 4.1365,-4.13646 4.2201,-7.40619 0.3256,-12.735997 -2.8593,-3.91306 -6.5584,-4.16269 -70.7267,-4.77286 -37.24031,-0.35411 -70.81284,-0.0729 -74.60564,0.62495 -5.14912,0.94739 -7.24911,2.67569 -8.28993,6.822647 -2.82933,11.27293 -0.0785,12.28637 35.09048,12.9275 l 32.20989,0.58718 0,19.7268 c 0,12.50691 0.9342,20.66102 2.5525,22.27934 3.0444,3.04436 10.0303,3.27261 14.4644,0.47259 z"
     id="path3423"
     inkscape:connector-curvature="0" /><path
     style="fill:#ff0000"
     d="M 314.17543,700.81828 C 260.41963,695.10676 201.6035,673.83595 157.44856,644.13814 92.825257,600.67369 46.544696,540.04176 20.75376,465.05498 7.4040597,426.24094 4.6796612,407.52106 4.6796612,354.60679 c 0,-54.63504 2.4612588,-72.48512 15.1545108,-109.9069 C 60.668572,124.31347 156.90366,38.27788 280.64927,11.527338 306.84182,5.8651948 365.39395,3.6321059 392.63009,7.2565597 538.18922,26.62687 656.35545,135.4277 687.34961,278.6178 c 20.90133,96.56208 1.1408,195.65277 -54.9322,275.46186 -14.39417,20.48732 -36.5838,44.93255 -57.34975,63.17936 -58.10699,51.05806 -125.00673,78.57534 -203.46003,83.68744 -32.98968,2.14965 -36.05828,2.1428 -57.4322,-0.12826 l 0,8e-5 z m -99.01468,-113.2365 c 15.43501,-9.35405 19.71405,-17.55858 18.78078,-36.00978 -0.61852,-12.22844 -2.38999,-17.56587 -12.72104,-38.32859 -12.901,-25.92758 -20.30585,-35.74002 -26.97084,-35.74002 -6.17586,0 -15.9837,13.1069 -28.25704,37.7618 -8.98846,18.05622 -11.02331,24.27783 -11.82687,36.16102 -0.9018,13.33597 -0.49937,15.05532 5.68135,24.27329 13.0911,19.52417 34.95415,24.2207 55.31366,11.88228 z M 259.8801,435.74354 c 2.48929,-2.34415 3.42692,-12.61047 4.54181,-49.72908 1.56741,-52.18434 2.64241,-56.31646 15.17173,-58.31689 3.81108,-0.60846 24.87681,-1.37746 46.81272,-1.70884 l 39.88347,-0.60255 0,5.86368 c 0,11.68728 5.82324,14.33184 32.43856,14.73161 43.39607,0.65186 87.69949,-0.81462 90.40254,-2.99238 1.4624,-1.17822 2.6589,-5.2516 2.6589,-9.052 l 0,-6.9098 16.52701,-1.44167 c 9.08986,-0.79291 17.94399,-2.31777 19.67585,-3.38859 4.7465,-2.93474 4.70665,-120.3911 -0.0419,-123.39185 -1.75488,-1.10897 -10.60901,-2.03097 -19.67585,-2.04888 l -16.48511,-0.0326 0,-8.43364 c 0,-6.28789 -1.09457,-9.01943 -4.30209,-10.73604 -2.86217,-1.53179 -22.85502,-2.0908 -59.73356,-1.67018 -52.01749,0.59329 -55.61724,0.88653 -58.4479,4.76124 -1.65905,2.27096 -3.01645,6.71052 -3.01645,9.86568 l 0,5.73667 -67.53602,0.94679 c -64.30892,0.90154 -68.14586,1.18219 -80.29872,5.8733 -25.66077,9.90526 -45.0276,25.03975 -60.82204,47.53022 -19.04605,27.12057 -19.35185,28.68843 -21.41972,109.82093 -1.60141,62.83119 -1.43037,71.54987 1.46055,74.44915 4.06317,4.07494 38.26608,5.93802 86.099,4.68993 24.24971,-0.63273 33.80005,-1.6416 36.10722,-3.81424 z M 440.79163,150.8522 c 1.14097,-3.00095 2.07447,-12.4304 2.07447,-20.95434 l 0,-15.49808 30.12647,-1.49116 c 16.56957,-0.82015 31.88483,-2.43221 34.0339,-3.58237 4.67111,-2.4999 5.0331,-8.09631 0.89041,-13.765882 -2.8668,-3.923423 -6.60021,-4.161078 -74.98093,-4.772992 -76.11571,-0.681133 -77.40908,-0.533552 -80.20905,9.152453 -2.689,9.302151 0.9059,10.557641 34.22298,11.952021 17.29989,0.72403 31.55033,1.44193 31.66762,1.59534 0.11721,0.15341 0.83073,8.97793 1.58543,19.61006 0.75468,10.63212 1.91171,20.20416 2.57118,21.27118 0.65945,1.06702 4.5164,1.94004 8.57103,1.94004 5.95614,0 7.77045,-1.04793 9.44649,-5.45627 z"
     id="path3348"
     inkscape:connector-curvature="0" /><path
     style="fill:#ff3300"
     d="M 307.79407,699.34221 C 289.87795,696.89622 250.15716,686.83122 232.28136,680.2078 148.98776,649.34541 83.066269,591.29377 43.160305,513.66441 28.380778,484.91368 14.397603,445.75942 9.7772071,420.18848 5.6500492,397.34728 5.0838068,316.17152 8.878706,291.38051 14.241564,256.34646 33.89448,206.08931 56.291527,170.13474 106.55778,89.44101 188.10887,32.340262 281.72026,12.293215 c 25.42947,-5.4457659 109.92,-5.4638514 135.10526,-0.02892 140.00212,30.212209 243.72557,136.593015 272.14396,279.116215 5.95238,29.85226 5.3162,100.74525 -1.17396,130.81779 -14.69873,68.10756 -42.55256,121.09215 -90.01857,171.23672 -57.47902,60.72262 -127.54716,95.59588 -211.36568,105.19773 -18.30868,2.09736 -65.3424,2.52181 -78.6172,0.70946 z M 217.22661,587.41163 c 14.09436,-9.3272 17.52521,-16.6129 16.6978,-35.45909 -0.60674,-13.82018 -2.00549,-18.65544 -10.46062,-36.16101 -12.73392,-26.36441 -21.533,-38.28814 -28.2546,-38.28814 -7.34286,0 -17.84202,13.19756 -30.02264,37.73876 -8.86885,17.86874 -10.36363,22.7793 -11.16901,36.69176 -0.90274,15.59427 -0.72133,16.33327 6.22844,25.37214 10.33585,13.44284 19.09972,17.61318 35.09462,16.70008 9.83931,-0.56171 15.21954,-2.18283 21.88601,-6.5945 z m 40.32305,-150.18589 c 5.22469,-2.79616 5.98256,-8.09048 8.46344,-59.12329 2.42504,-49.8841 1.54186,-48.37459 29.38162,-50.21803 11.4993,-0.76145 32.15497,-1.38939 45.90147,-1.39546 l 24.99365,-0.011 0,6.33232 c 0,4.54117 1.63167,7.39912 5.76849,10.10382 5.14126,3.3614 11.33892,3.75057 56.99865,3.57913 28.17656,-0.10572 53.81825,-0.84196 56.98149,-1.63588 4.86487,-1.22099 5.75137,-2.57854 5.75137,-8.80736 0,-8.23297 0.29713,-8.37389 22.30611,-10.57884 7.00373,-0.70165 13.70415,-2.24562 14.88983,-3.43102 2.72016,-2.71955 4.1669,-96.39268 1.73833,-112.5537 l -1.75807,-11.69915 -18.5881,-0.6146 -18.5881,-0.61459 0,-8.00024 c 0,-4.40013 -1.14865,-9.14888 -2.55255,-10.55278 -1.85382,-1.85381 -17.42954,-2.54396 -56.90042,-2.52118 -60.76225,0.035 -64.53244,0.73845 -65.65003,12.24808 -0.45425,4.67818 -1.80926,6.91384 -4.25424,7.01914 -1.97322,0.085 -33.34794,0.84975 -69.72161,1.69949 l -66.13392,1.54499 -18.86689,9.05297 c -15.55087,7.46183 -21.87413,12.11677 -35.97698,26.48482 -20.59335,20.98062 -30.00712,37.56838 -32.96246,58.08229 -2.95035,20.47924 -5.15905,139.43442 -2.65528,143.00672 1.12664,1.60746 8.85397,3.63871 17.70743,4.65469 20.89057,2.39728 98.27396,0.86691 103.72677,-2.05135 z m 183.1145,-285.03167 c 1.21107,-2.26291 2.20195,-11.28747 2.20195,-20.05456 l 0,-15.94017 11.16737,-1.13199 c 6.14206,-0.62259 20.22245,-1.69824 31.28977,-2.39032 22.03741,-1.37808 26.14786,-3.24547 25.18642,-11.44228 -1.19599,-10.196436 -5.69072,-10.80171 -80.46475,-10.835597 -75.39789,-0.03417 -78.64491,0.454714 -78.64491,11.841057 0,7.37697 5.7089,8.98234 38.00573,10.68736 l 27.52609,1.45317 1.268,6.33992 c 0.69737,3.48696 1.26797,9.92944 1.26797,14.31663 0,4.38718 0.59825,10.96795 1.32945,14.62394 1.21201,6.06 2.05101,6.64724 9.4972,6.64724 5.89818,0 8.7796,-1.14325 10.36971,-4.1144 z"
     id="path3349"
     inkscape:connector-curvature="0" /></svg>